<?xml version="1.0" encoding="utf-8"?>
<!-- Generator: Adobe Illustrator 26.0.1, SVG Export Plug-In . SVG Version: 6.00 Build 0)  -->
<svg version="1.1" xmlns="http://www.w3.org/2000/svg" xmlns:xlink="http://www.w3.org/1999/xlink" x="0px" y="0px"
	 viewBox="0 0 1235.991 742.176" enable-background="new 0 0 1235.991 742.176" xml:space="preserve">
<g id="Ebene_2">
	<rect x="-181.436" y="-61.816" fill="#FFFFFF" width="1600" height="870"/>
</g>
<g id="Layer_1">
	
		<line fill="none" stroke="#231F20" stroke-width="2" stroke-miterlimit="10" x1="607.107" y1="327.847" x2="607.107" y2="227.771"/>
	<line fill="none" stroke="#231F20" stroke-width="2" stroke-miterlimit="10" x1="120.03" y1="365.477" x2="436.327" y2="365.477"/>
	<g>
		<path d="M472.301,375.849V349.2h10.652c1.219,0,2.399,0.091,3.542,0.272s2.156,0.519,3.041,1.011s1.594,1.166,2.127,2.021
			s0.8,1.951,0.8,3.287c0,0.938-0.141,1.761-0.422,2.47s-0.653,1.31-1.116,1.802s-1.002,0.888-1.617,1.187s-1.257,0.519-1.925,0.659
			v0.088c0.809,0.141,1.562,0.36,2.259,0.659s1.31,0.706,1.837,1.222s0.94,1.151,1.239,1.907s0.448,1.661,0.448,2.716
			c0,1.348-0.27,2.49-0.809,3.428s-1.257,1.693-2.153,2.268s-1.928,0.993-3.094,1.257s-2.37,0.396-3.612,0.396H472.301z
			 M478.049,360.187h4.324c1.535,0,2.663-0.275,3.384-0.826s1.081-1.342,1.081-2.373c0-1.055-0.337-1.857-1.011-2.408
			s-1.802-0.826-3.384-0.826h-4.395V360.187z M478.049,371.384h4.729c1.629,0,2.815-0.305,3.56-0.914s1.116-1.494,1.116-2.654
			c0-2.32-1.646-3.48-4.939-3.48h-4.465V371.384z"/>
		<path d="M505.787,376.253c-1.254,0-2.47-0.176-3.647-0.527s-2.221-0.917-3.129-1.696s-1.638-1.805-2.188-3.076
			s-0.826-2.833-0.826-4.685c0-1.875,0.316-3.448,0.949-4.72s1.43-2.297,2.391-3.076s2.004-1.342,3.129-1.688
			s2.18-0.519,3.164-0.519s2.001,0.149,3.05,0.448s1.998,0.844,2.848,1.635s1.55,1.878,2.101,3.261s0.826,3.164,0.826,5.344v0.861
			h-12.709c0.152,1.582,0.63,2.71,1.433,3.384s1.813,1.011,3.032,1.011c1.148,0,2.221-0.234,3.217-0.703s1.822-1.002,2.479-1.6
			l2.232,3.463C511.875,375.292,509.092,376.253,505.787,376.253z M509.268,364.405c-0.281-2.672-1.506-4.008-3.674-4.008
			c-0.902,0-1.702,0.313-2.399,0.94s-1.157,1.649-1.38,3.067H509.268z"/>
		<path d="M517.846,375.849v-19.195h5.801v3.023c0.281-0.375,0.627-0.762,1.037-1.16s0.891-0.765,1.441-1.099
			s1.169-0.609,1.854-0.826s1.45-0.325,2.294-0.325c0.809,0,1.556,0.108,2.241,0.325s1.274,0.548,1.767,0.993
			s0.876,1.02,1.151,1.723s0.413,1.547,0.413,2.531v14.01h-5.766v-12.164c0-0.867-0.173-1.523-0.519-1.969s-0.929-0.668-1.749-0.668
			c-0.762,0-1.485,0.182-2.171,0.545s-1.351,0.82-1.995,1.371v12.885H517.846z"/>
		<path d="M548.818,376.253c-1.254,0-2.47-0.176-3.647-0.527s-2.221-0.917-3.129-1.696s-1.638-1.805-2.188-3.076
			s-0.826-2.833-0.826-4.685c0-1.875,0.316-3.448,0.949-4.72s1.43-2.297,2.391-3.076s2.004-1.342,3.129-1.688
			s2.18-0.519,3.164-0.519s2.001,0.149,3.05,0.448s1.998,0.844,2.848,1.635s1.55,1.878,2.101,3.261s0.826,3.164,0.826,5.344v0.861
			h-12.709c0.152,1.582,0.63,2.71,1.433,3.384s1.813,1.011,3.032,1.011c1.148,0,2.221-0.234,3.217-0.703s1.822-1.002,2.479-1.6
			l2.232,3.463C554.906,375.292,552.123,376.253,548.818,376.253z M552.299,364.405c-0.281-2.672-1.506-4.008-3.674-4.008
			c-0.902,0-1.702,0.313-2.399,0.94s-1.157,1.649-1.38,3.067H552.299z"/>
		<path d="M562.564,375.849v-14.977h-3.199v-4.219h3.199v-1.318c0-0.797,0.085-1.573,0.255-2.329s0.483-1.427,0.94-2.013
			s1.069-1.055,1.837-1.406s1.749-0.527,2.944-0.527c0.293,0,0.612,0.012,0.958,0.035s0.674,0.047,0.984,0.07
			s0.586,0.05,0.826,0.079s0.401,0.056,0.483,0.079v3.99c-0.176-0.047-0.401-0.076-0.677-0.088s-0.519-0.018-0.729-0.018
			c-0.727,0-1.251,0.19-1.573,0.571s-0.483,0.958-0.483,1.731v1.143h3.533v4.219h-3.533v14.977H562.564z M574.096,354.351v-4.957
			h5.818v4.957H574.096z M574.131,375.849v-19.195h5.748v19.195H574.131z"/>
		<path d="M592.781,376.095c-1.418,0-2.561-0.126-3.428-0.378s-1.526-0.618-1.978-1.099s-0.75-1.066-0.896-1.758
			s-0.22-1.494-0.22-2.408v-9.58h-3.199v-4.219h3.199v-6.574h5.766v6.574h4.922v4.219h-4.922v8.314c0,1.031,0.179,1.74,0.536,2.127
			s1.063,0.58,2.118,0.58c0.34,0,0.694-0.018,1.063-0.053s0.653-0.094,0.853-0.176v4.148c-0.117,0.023-0.322,0.053-0.615,0.088
			s-0.624,0.064-0.993,0.088s-0.753,0.047-1.151,0.07S593.086,376.095,592.781,376.095z"/>
		<path d="M607.529,376.253c-2.109,0-3.885-0.284-5.326-0.853s-2.654-1.269-3.639-2.101l2.303-3.252
			c0.867,0.773,1.901,1.383,3.103,1.828s2.388,0.668,3.56,0.668c0.914,0,1.652-0.158,2.215-0.475s0.844-0.785,0.844-1.406
			c0-0.668-0.275-1.16-0.826-1.477s-1.488-0.592-2.812-0.826c-0.914-0.164-1.819-0.354-2.716-0.571s-1.699-0.542-2.408-0.976
			s-1.286-1.005-1.731-1.714s-0.668-1.626-0.668-2.751c0-0.961,0.188-1.819,0.562-2.575s0.896-1.392,1.564-1.907
			s1.453-0.911,2.355-1.187s1.893-0.413,2.971-0.413c1.969,0,3.601,0.24,4.896,0.721s2.47,1.137,3.524,1.969l-2.268,3.287
			c-0.984-0.668-1.942-1.184-2.874-1.547s-1.854-0.545-2.769-0.545c-0.844,0-1.488,0.149-1.934,0.448s-0.668,0.712-0.668,1.239
			c0,0.574,0.272,1.008,0.817,1.301s1.415,0.545,2.61,0.756c0.938,0.164,1.875,0.354,2.812,0.571s1.77,0.536,2.496,0.958
			s1.318,0.981,1.775,1.679s0.686,1.585,0.686,2.663c0,1.148-0.234,2.139-0.703,2.971s-1.093,1.506-1.872,2.021
			s-1.679,0.894-2.698,1.134S608.631,376.253,607.529,376.253z"/>
		<path d="M637.676,376.253c-1.16,0-2.326-0.17-3.498-0.51s-2.227-0.899-3.164-1.679s-1.699-1.805-2.285-3.076
			s-0.879-2.845-0.879-4.72s0.293-3.454,0.879-4.737s1.348-2.314,2.285-3.094s1.986-1.336,3.146-1.67s2.332-0.501,3.516-0.501
			c1.148,0,2.306,0.167,3.472,0.501s2.215,0.891,3.146,1.67s1.693,1.811,2.285,3.094s0.888,2.862,0.888,4.737
			s-0.296,3.448-0.888,4.72s-1.354,2.297-2.285,3.076s-1.98,1.339-3.146,1.679S638.824,376.253,637.676,376.253z M637.676,372.175
			c1.359,0,2.364-0.539,3.015-1.617s0.976-2.496,0.976-4.254c0-0.785-0.073-1.532-0.22-2.241s-0.381-1.327-0.703-1.854
			s-0.735-0.94-1.239-1.239s-1.113-0.448-1.828-0.448c-1.395,0-2.417,0.533-3.067,1.6s-0.976,2.461-0.976,4.184
			c0,0.797,0.073,1.556,0.22,2.276s0.381,1.345,0.703,1.872s0.735,0.946,1.239,1.257S636.926,372.175,637.676,372.175z"/>
		<path d="M652.178,375.849v-14.977h-3.199v-4.219h3.199v-1.318c0-0.797,0.079-1.573,0.237-2.329s0.478-1.427,0.958-2.013
			s1.157-1.055,2.03-1.406s2.019-0.527,3.437-0.527c0.293,0,0.618,0.012,0.976,0.035s0.712,0.047,1.063,0.07s0.665,0.05,0.94,0.079
			s0.448,0.056,0.519,0.079v4.025c-0.152-0.047-0.401-0.082-0.747-0.105s-0.659-0.035-0.94-0.035c-0.363,0-0.709,0.023-1.037,0.07
			s-0.618,0.149-0.87,0.308s-0.448,0.393-0.589,0.703s-0.211,0.718-0.211,1.222v1.143h4.166v4.219h-4.166v14.977H652.178z"/>
		<path d="M675.258,375.849V349.2h18.141v4.904h-12.287v5.73h8.895v4.641h-8.895v6.627h12.938v4.746H675.258z"/>
		<path d="M698.039,375.849V349.2h10.002c1.629,0,3.091,0.152,4.386,0.457s2.394,0.791,3.296,1.459s1.594,1.526,2.074,2.575
			s0.721,2.3,0.721,3.753c0,2.121-0.475,3.779-1.424,4.975s-2.32,2.074-4.113,2.637l5.924,10.793h-6.188l-5.537-10.037h-3.393
			v10.037H698.039z M703.787,361.276h4.008c1.699,0,2.956-0.272,3.771-0.817s1.222-1.497,1.222-2.856
			c0-1.324-0.407-2.256-1.222-2.795s-2.071-0.809-3.771-0.809h-4.008V361.276z"/>
		<path d="M723.422,375.849V349.2h9.686c1.406,0,2.766,0.114,4.078,0.343s2.473,0.662,3.48,1.301s1.811,1.509,2.408,2.61
			s0.896,2.531,0.896,4.289c0,1.793-0.316,3.249-0.949,4.368s-1.474,1.995-2.522,2.628s-2.227,1.063-3.533,1.292
			s-2.622,0.343-3.946,0.343h-3.779v9.475H723.422z M729.24,361.839h4.008c1.816,0,3.103-0.334,3.858-1.002s1.134-1.652,1.134-2.953
			c0-1.242-0.372-2.2-1.116-2.874s-2.036-1.011-3.876-1.011h-4.008V361.839z"/>
	</g>
	<g>
		<path d="M0,171.568h1.982v8.887h11.225v-8.887h1.996v20.727h-1.996v-10.021H1.982v10.021H0V171.568z"/>
		<path d="M20.18,172.046h2.051v2.078H20.18V172.046z M20.234,177.542h1.928v14.752h-1.928V177.542z"/>
		<path d="M32.17,197.955c-2.406,0-4.175-0.333-5.305-0.998s-1.695-1.567-1.695-2.707c0-0.766,0.239-1.434,0.718-2.003
			s1.146-1.019,2.003-1.347c-0.884-0.355-1.326-0.984-1.326-1.887c0-0.446,0.164-0.856,0.492-1.23s0.766-0.697,1.312-0.971
			c-0.711-0.456-1.263-1.046-1.654-1.771s-0.588-1.547-0.588-2.468c0-0.784,0.148-1.502,0.444-2.153s0.702-1.21,1.217-1.675
			s1.128-0.829,1.839-1.094s1.485-0.396,2.324-0.396c0.856,0,1.641,0.132,2.352,0.396s1.326,0.638,1.846,1.121
			c0.429-0.319,0.955-0.604,1.579-0.854s1.237-0.412,1.839-0.485v1.818c-0.429,0-0.877,0.036-1.347,0.109s-0.918,0.2-1.347,0.383
			c0.583,0.793,0.875,1.736,0.875,2.83c0,0.802-0.15,1.526-0.451,2.174s-0.709,1.198-1.224,1.654s-1.126,0.805-1.832,1.046
			s-1.47,0.362-2.29,0.362c-0.866,0-1.659-0.137-2.379-0.41c-0.355,0.146-0.641,0.321-0.854,0.526s-0.321,0.449-0.321,0.731
			c0,0.319,0.152,0.561,0.458,0.725s0.877,0.296,1.716,0.396l3.227,0.246c1.714,0.146,3.01,0.52,3.89,1.121s1.319,1.481,1.319,2.639
			c0,0.665-0.169,1.26-0.506,1.784s-0.805,0.959-1.401,1.306s-1.314,0.613-2.153,0.8S33.182,197.955,32.17,197.955z M32.361,196.437
			c1.513,0,2.7-0.228,3.562-0.684s1.292-1.058,1.292-1.805c0-0.711-0.308-1.249-0.923-1.613s-1.652-0.602-3.11-0.711l-2.939-0.232
			l-0.766-0.082c-0.839,0.265-1.458,0.638-1.859,1.121s-0.602,1.007-0.602,1.572c0,0.784,0.426,1.386,1.278,1.805
			S30.502,196.437,32.361,196.437z M31.979,186.333c1.212,0,2.172-0.337,2.878-1.012s1.06-1.581,1.06-2.721
			c0-1.176-0.344-2.104-1.032-2.782s-1.666-1.019-2.933-1.019c-1.23,0-2.196,0.344-2.898,1.032S28,181.444,28,182.601
			c0,1.14,0.36,2.046,1.08,2.721S30.767,186.333,31.979,186.333z"/>
		<path d="M42.588,171.568h1.928v8.299c0.711-0.711,1.533-1.324,2.468-1.839s1.989-0.772,3.165-0.772
			c1.458,0,2.555,0.383,3.288,1.148s1.101,1.841,1.101,3.227v10.664h-1.928v-10.309c0-1.039-0.237-1.812-0.711-2.317
			s-1.217-0.759-2.229-0.759c-0.948,0-1.834,0.228-2.659,0.684s-1.656,1.085-2.495,1.887v10.814h-1.928V171.568z"/>
		<path d="M64.477,192.609c-0.856,0-1.677-0.164-2.461-0.492s-1.47-0.82-2.058-1.477s-1.06-1.458-1.415-2.406
			s-0.533-2.06-0.533-3.336c0-1.304,0.191-2.436,0.574-3.397s0.884-1.755,1.504-2.379s1.311-1.092,2.071-1.401
			s1.533-0.465,2.317-0.465c0.866,0,1.666,0.164,2.399,0.492s1.367,0.813,1.9,1.456s0.955,1.444,1.265,2.406
			s0.465,2.066,0.465,3.315v0.369H59.951c0,0.911,0.125,1.718,0.376,2.42s0.586,1.294,1.005,1.777s0.909,0.853,1.47,1.107
			s1.16,0.383,1.798,0.383c1.103,0,2.003-0.23,2.7-0.69s1.328-1.128,1.894-2.003l1.203,0.957c-0.656,1.039-1.456,1.859-2.399,2.461
			S65.88,192.609,64.477,192.609z M68.633,183.75c-0.063-0.684-0.189-1.324-0.376-1.921s-0.451-1.116-0.793-1.559
			s-0.766-0.784-1.271-1.025s-1.087-0.362-1.743-0.362c-0.538,0-1.053,0.098-1.545,0.294s-0.941,0.494-1.347,0.896
			s-0.747,0.904-1.025,1.511s-0.463,1.328-0.554,2.167H68.633z"/>
		<path d="M74.143,177.542h1.928v2.912h0.055c0.583-0.921,1.342-1.684,2.276-2.29s2.126-0.909,3.575-0.909h0.342l-0.191,1.791H81.84
			c-0.073,0-0.137-0.005-0.191-0.014s-0.091-0.014-0.109-0.014c-1.222,0-2.292,0.319-3.213,0.957s-1.673,1.545-2.256,2.721v9.598
			h-1.928V177.542z"/>
		<path d="M91.533,177.542h1.928v2.092c0.602-0.629,1.294-1.183,2.078-1.661s1.736-0.718,2.857-0.718
			c0.839,0,1.632,0.159,2.379,0.479s1.39,0.791,1.928,1.415s0.966,1.417,1.285,2.379s0.479,2.085,0.479,3.37
			c0,1.294-0.159,2.422-0.479,3.384s-0.757,1.755-1.312,2.379s-1.217,1.094-1.982,1.408s-1.591,0.472-2.475,0.472
			c-0.948,0-1.813-0.21-2.598-0.629s-1.504-0.962-2.16-1.627v7.615h-1.928V177.542z M98.055,190.927c0.656,0,1.26-0.118,1.812-0.355
			s1.023-0.597,1.415-1.08s0.699-1.103,0.923-1.859s0.335-1.659,0.335-2.707c0-1.021-0.116-1.909-0.349-2.666
			s-0.556-1.383-0.971-1.88s-0.891-0.866-1.429-1.107s-1.116-0.362-1.736-0.362c-0.911,0-1.728,0.219-2.447,0.656
			s-1.436,1.03-2.146,1.777v7.178c0.729,0.784,1.463,1.381,2.201,1.791S97.198,190.927,98.055,190.927z"/>
		<path d="M108.131,177.542h1.928v2.912h0.055c0.583-0.921,1.342-1.684,2.276-2.29s2.126-0.909,3.575-0.909h0.342l-0.191,1.791
			h-0.287c-0.073,0-0.137-0.005-0.191-0.014s-0.091-0.014-0.109-0.014c-1.222,0-2.292,0.319-3.213,0.957s-1.673,1.545-2.256,2.721
			v9.598h-1.928V177.542z"/>
		<path d="M124.291,192.609c-0.894,0-1.748-0.169-2.563-0.506s-1.531-0.834-2.146-1.49s-1.101-1.458-1.456-2.406
			s-0.533-2.042-0.533-3.281c0-1.23,0.178-2.322,0.533-3.274s0.836-1.755,1.442-2.406s1.317-1.146,2.133-1.483
			s1.68-0.506,2.591-0.506c0.894,0,1.745,0.169,2.557,0.506s1.52,0.832,2.126,1.483s1.087,1.454,1.442,2.406
			s0.533,2.044,0.533,3.274c0,1.239-0.178,2.333-0.533,3.281s-0.836,1.75-1.442,2.406s-1.314,1.153-2.126,1.49
			S125.185,192.609,124.291,192.609z M124.291,190.955c0.747,0,1.41-0.15,1.989-0.451s1.073-0.718,1.483-1.251
			s0.723-1.167,0.937-1.9s0.321-1.552,0.321-2.454c0-0.802-0.103-1.565-0.308-2.29s-0.504-1.358-0.896-1.9s-0.882-0.978-1.47-1.306
			s-1.273-0.492-2.058-0.492c-0.747,0-1.415,0.15-2.003,0.451s-1.087,0.716-1.497,1.244s-0.723,1.162-0.937,1.9
			s-0.321,1.536-0.321,2.393c0,0.82,0.098,1.595,0.294,2.324s0.494,1.369,0.896,1.921s0.9,0.991,1.497,1.319
			S123.507,190.955,124.291,190.955z"/>
		<path d="M139.863,192.541c-0.839,0-1.632-0.152-2.379-0.458s-1.393-0.774-1.935-1.408s-0.973-1.427-1.292-2.379
			s-0.479-2.076-0.479-3.37c0-1.285,0.159-2.408,0.479-3.37s0.759-1.759,1.319-2.393s1.224-1.109,1.989-1.429
			s1.586-0.479,2.461-0.479c0.957,0,1.846,0.219,2.666,0.656s1.518,0.984,2.092,1.641v-7.984h1.941v17.09
			c0,0.894,0.032,1.629,0.096,2.208s0.178,1.055,0.342,1.429h-2.037c-0.091-0.265-0.171-0.593-0.239-0.984s-0.103-0.784-0.103-1.176
			c-0.593,0.656-1.285,1.222-2.078,1.695S140.966,192.541,139.863,192.541z M140.191,190.9c0.921,0,1.738-0.217,2.454-0.649
			s1.429-1.023,2.14-1.771v-7.164c-0.729-0.784-1.461-1.386-2.194-1.805s-1.533-0.629-2.399-0.629c-0.647,0-1.246,0.121-1.798,0.362
			s-1.023,0.61-1.415,1.107s-0.699,1.128-0.923,1.894s-0.335,1.668-0.335,2.707c0,1.012,0.116,1.892,0.349,2.639
			s0.554,1.367,0.964,1.859s0.887,0.856,1.429,1.094S139.581,190.9,140.191,190.9z"/>
		<path d="M155.449,192.609c-1.477,0-2.577-0.388-3.302-1.162s-1.087-1.854-1.087-3.24v-10.664h1.928v10.322
			c0,1.048,0.232,1.825,0.697,2.331s1.212,0.759,2.242,0.759c0.948,0,1.83-0.234,2.646-0.704s1.643-1.096,2.481-1.88v-10.828h1.955
			v14.752h-1.955v-2.324c-0.711,0.711-1.533,1.328-2.468,1.853S156.606,192.609,155.449,192.609z"/>
		<path d="M173.004,192.609c-0.839,0-1.646-0.169-2.42-0.506s-1.456-0.834-2.044-1.49s-1.055-1.458-1.401-2.406
			s-0.52-2.042-0.52-3.281c0-1.321,0.187-2.463,0.561-3.425s0.868-1.759,1.483-2.393s1.321-1.101,2.119-1.401
			s1.606-0.451,2.427-0.451c0.784,0,1.479,0.107,2.085,0.321s1.133,0.508,1.579,0.882s0.834,0.805,1.162,1.292s0.602,1,0.82,1.538
			l-1.641,0.725c-0.419-1.003-0.941-1.771-1.565-2.304s-1.456-0.8-2.495-0.8c-0.547,0-1.096,0.103-1.647,0.308
			s-1.046,0.547-1.483,1.025s-0.791,1.099-1.06,1.859s-0.403,1.693-0.403,2.796c0,0.976,0.116,1.837,0.349,2.584
			s0.549,1.376,0.95,1.887s0.877,0.902,1.429,1.176s1.15,0.41,1.798,0.41c1.03,0,1.861-0.248,2.495-0.745s1.215-1.297,1.743-2.399
			l1.559,0.67c-0.292,0.62-0.62,1.188-0.984,1.702s-0.786,0.95-1.265,1.306s-1.017,0.631-1.613,0.827
			S173.751,192.609,173.004,192.609z"/>
		<path d="M187.223,192.486c-1.413,0-2.413-0.285-3.001-0.854s-0.882-1.497-0.882-2.782v-9.652h-2.584v-1.654h2.584v-5.291h1.928
			v5.291h3.828v1.654h-3.828v9.256c0,0.784,0.159,1.383,0.479,1.798s0.935,0.622,1.846,0.622c0.282,0,0.559-0.016,0.827-0.048
			s0.508-0.084,0.718-0.157v1.654c-0.228,0.036-0.52,0.073-0.875,0.109S187.56,192.486,187.223,192.486z"/>
		<path d="M192.664,172.046h2.051v2.078h-2.051V172.046z M192.719,177.542h1.928v14.752h-1.928V177.542z"/>
		<path d="M197.764,177.542h2.078l4.361,12.455h0.055l4.348-12.455h1.955l-5.428,14.807h-1.928L197.764,177.542z"/>
		<path d="M213.637,172.046h2.051v2.078h-2.051V172.046z M213.691,177.542h1.928v14.752h-1.928V177.542z"/>
		<path d="M225.148,192.486c-1.413,0-2.413-0.285-3.001-0.854s-0.882-1.497-0.882-2.782v-9.652h-2.584v-1.654h2.584v-5.291h1.928
			v5.291h3.828v1.654h-3.828v9.256c0,0.784,0.159,1.383,0.479,1.798s0.935,0.622,1.846,0.622c0.282,0,0.559-0.016,0.827-0.048
			s0.508-0.084,0.718-0.157v1.654c-0.228,0.036-0.52,0.073-0.875,0.109S225.485,192.486,225.148,192.486z"/>
		<path d="M230.549,197.955c-0.565,0-1.039-0.029-1.422-0.089s-0.72-0.135-1.012-0.226l0.438-1.6c0.21,0.063,0.483,0.118,0.82,0.164
			s0.747,0.068,1.23,0.068c0.802,0,1.427-0.183,1.873-0.547s0.829-0.938,1.148-1.723l0.615-1.627l-5.715-14.834h2.078l4.594,12.455
			h0.055l4.566-12.455h2.01l-6.357,16.461c-0.237,0.656-0.497,1.23-0.779,1.723s-0.615,0.902-0.998,1.23s-0.825,0.576-1.326,0.745
			S231.26,197.955,230.549,197.955z"/>
	</g>
	<g>
		<path d="M510.017,171.568h5.236c3.391,0,5.954,0.863,7.69,2.591s2.604,4.309,2.604,7.745s-0.877,6.027-2.632,7.772
			s-4.309,2.618-7.663,2.618h-5.236V171.568z M515.554,190.503c2.562,0,4.537-0.682,5.927-2.044s2.085-3.548,2.085-6.556
			c0-2.926-0.699-5.07-2.099-6.433s-3.389-2.044-5.968-2.044h-3.5v17.076H515.554z"/>
		<path d="M534.79,192.609c-0.856,0-1.677-0.164-2.461-0.492s-1.47-0.82-2.058-1.477s-1.06-1.458-1.415-2.406
			s-0.533-2.06-0.533-3.336c0-1.304,0.191-2.436,0.574-3.397s0.884-1.755,1.504-2.379s1.311-1.092,2.071-1.401
			s1.533-0.465,2.317-0.465c0.866,0,1.666,0.164,2.399,0.492s1.367,0.813,1.9,1.456s0.955,1.444,1.265,2.406
			s0.465,2.066,0.465,3.315v0.369h-10.555c0,0.911,0.125,1.718,0.376,2.42s0.586,1.294,1.005,1.777s0.909,0.853,1.47,1.107
			s1.16,0.383,1.798,0.383c1.103,0,2.003-0.23,2.7-0.69s1.328-1.128,1.894-2.003l1.203,0.957c-0.656,1.039-1.456,1.859-2.399,2.461
			S536.193,192.609,534.79,192.609z M538.946,183.75c-0.063-0.684-0.189-1.324-0.376-1.921s-0.451-1.116-0.793-1.559
			s-0.766-0.784-1.271-1.025s-1.087-0.362-1.743-0.362c-0.538,0-1.053,0.098-1.545,0.294s-0.941,0.494-1.347,0.896
			s-0.747,0.904-1.025,1.511s-0.463,1.328-0.554,2.167H538.946z"/>
		<path d="M550.075,192.609c-0.856,0-1.677-0.164-2.461-0.492s-1.47-0.82-2.058-1.477s-1.06-1.458-1.415-2.406
			s-0.533-2.06-0.533-3.336c0-1.304,0.191-2.436,0.574-3.397s0.884-1.755,1.504-2.379s1.311-1.092,2.071-1.401
			s1.533-0.465,2.317-0.465c0.866,0,1.666,0.164,2.399,0.492s1.367,0.813,1.9,1.456s0.955,1.444,1.265,2.406
			s0.465,2.066,0.465,3.315v0.369H545.55c0,0.911,0.125,1.718,0.376,2.42s0.586,1.294,1.005,1.777s0.909,0.853,1.47,1.107
			s1.16,0.383,1.798,0.383c1.103,0,2.003-0.23,2.7-0.69s1.328-1.128,1.894-2.003l1.203,0.957c-0.656,1.039-1.456,1.859-2.399,2.461
			S551.479,192.609,550.075,192.609z M554.231,183.75c-0.063-0.684-0.189-1.324-0.376-1.921s-0.451-1.116-0.793-1.559
			s-0.766-0.784-1.271-1.025s-1.087-0.362-1.743-0.362c-0.538,0-1.053,0.098-1.545,0.294s-0.941,0.494-1.347,0.896
			s-0.747,0.904-1.025,1.511s-0.463,1.328-0.554,2.167H554.231z"/>
		<path d="M559.741,177.542h1.928v2.092c0.602-0.629,1.294-1.183,2.078-1.661s1.736-0.718,2.857-0.718
			c0.839,0,1.632,0.159,2.379,0.479s1.39,0.791,1.928,1.415s0.966,1.417,1.285,2.379s0.479,2.085,0.479,3.37
			c0,1.294-0.159,2.422-0.479,3.384s-0.757,1.755-1.312,2.379s-1.217,1.094-1.982,1.408s-1.591,0.472-2.475,0.472
			c-0.948,0-1.813-0.21-2.598-0.629s-1.504-0.962-2.16-1.627v7.615h-1.928V177.542z M566.263,190.927
			c0.656,0,1.26-0.118,1.812-0.355s1.023-0.597,1.415-1.08s0.699-1.103,0.923-1.859s0.335-1.659,0.335-2.707
			c0-1.021-0.116-1.909-0.349-2.666s-0.556-1.383-0.971-1.88s-0.891-0.866-1.429-1.107s-1.116-0.362-1.736-0.362
			c-0.911,0-1.728,0.219-2.447,0.656s-1.436,1.03-2.146,1.777v7.178c0.729,0.784,1.463,1.381,2.201,1.791
			S565.406,190.927,566.263,190.927z"/>
		<path d="M581.958,192.609c-0.856,0-1.677-0.164-2.461-0.492s-1.47-0.82-2.058-1.477s-1.06-1.458-1.415-2.406
			s-0.533-2.06-0.533-3.336c0-1.304,0.191-2.436,0.574-3.397s0.884-1.755,1.504-2.379s1.311-1.092,2.071-1.401
			s1.533-0.465,2.317-0.465c0.866,0,1.666,0.164,2.399,0.492s1.367,0.813,1.9,1.456s0.955,1.444,1.265,2.406
			s0.465,2.066,0.465,3.315v0.369h-10.555c0,0.911,0.125,1.718,0.376,2.42s0.586,1.294,1.005,1.777s0.909,0.853,1.47,1.107
			s1.16,0.383,1.798,0.383c1.103,0,2.003-0.23,2.7-0.69s1.328-1.128,1.894-2.003l1.203,0.957c-0.656,1.039-1.456,1.859-2.399,2.461
			S583.361,192.609,581.958,192.609z M586.114,183.75c-0.063-0.684-0.189-1.324-0.376-1.921s-0.451-1.116-0.793-1.559
			s-0.766-0.784-1.271-1.025s-1.087-0.362-1.743-0.362c-0.538,0-1.053,0.098-1.545,0.294s-0.941,0.494-1.347,0.896
			s-0.747,0.904-1.025,1.511s-0.463,1.328-0.554,2.167H586.114z"/>
		<path d="M591.624,177.542h1.928v2.912h0.055c0.583-0.921,1.342-1.684,2.276-2.29s2.126-0.909,3.575-0.909h0.342l-0.191,1.791
			h-0.287c-0.073,0-0.137-0.005-0.191-0.014s-0.091-0.014-0.109-0.014c-1.222,0-2.292,0.319-3.213,0.957s-1.673,1.545-2.256,2.721
			v9.598h-1.928V177.542z"/>
		<path d="M609.124,172.046h2.051v2.078h-2.051V172.046z M609.179,177.542h1.928v14.752h-1.928V177.542z"/>
		<path d="M615.741,177.542h1.928v2.324c0.711-0.711,1.533-1.324,2.468-1.839s1.989-0.772,3.165-0.772
			c1.458,0,2.555,0.383,3.288,1.148s1.101,1.841,1.101,3.227v10.664h-1.928v-10.309c0-1.039-0.237-1.812-0.711-2.317
			s-1.217-0.759-2.229-0.759c-0.948,0-1.834,0.228-2.659,0.684s-1.656,1.085-2.495,1.887v10.814h-1.928V177.542z"/>
		<path d="M636.769,192.568c-1.321,0-2.477-0.246-3.466-0.738s-1.766-1.121-2.331-1.887l1.23-1.121
			c0.565,0.656,1.215,1.176,1.948,1.559s1.615,0.574,2.646,0.574c1.267,0,2.224-0.221,2.871-0.663s0.971-1.082,0.971-1.921
			c0-0.802-0.319-1.408-0.957-1.818s-1.673-0.784-3.104-1.121c-0.839-0.2-1.581-0.417-2.229-0.649s-1.185-0.513-1.613-0.841
			s-0.75-0.716-0.964-1.162s-0.321-0.998-0.321-1.654c0-0.52,0.111-1.014,0.335-1.483s0.549-0.882,0.978-1.237
			s0.95-0.636,1.565-0.841s1.324-0.308,2.126-0.308c1.276,0,2.343,0.191,3.199,0.574s1.613,0.902,2.27,1.559l-1.094,1.285
			c-0.556-0.556-1.189-0.998-1.9-1.326s-1.513-0.492-2.406-0.492c-0.583,0-1.075,0.062-1.477,0.185s-0.727,0.287-0.978,0.492
			s-0.438,0.438-0.561,0.697s-0.185,0.531-0.185,0.813c0,0.711,0.275,1.251,0.827,1.62s1.47,0.704,2.755,1.005
			c0.921,0.228,1.729,0.463,2.427,0.704s1.285,0.54,1.764,0.896s0.834,0.774,1.066,1.258s0.349,1.089,0.349,1.818
			c0,0.675-0.146,1.273-0.438,1.798s-0.688,0.969-1.189,1.333s-1.103,0.638-1.805,0.82S637.607,192.568,636.769,192.568z"/>
		<path d="M646.284,172.046h2.051v2.078h-2.051V172.046z M646.339,177.542h1.928v14.752h-1.928V177.542z"/>
		<path d="M658.274,197.955c-2.406,0-4.175-0.333-5.305-0.998s-1.695-1.567-1.695-2.707c0-0.766,0.239-1.434,0.718-2.003
			s1.146-1.019,2.003-1.347c-0.884-0.355-1.326-0.984-1.326-1.887c0-0.446,0.164-0.856,0.492-1.23s0.766-0.697,1.312-0.971
			c-0.711-0.456-1.263-1.046-1.654-1.771s-0.588-1.547-0.588-2.468c0-0.784,0.148-1.502,0.444-2.153s0.702-1.21,1.217-1.675
			s1.128-0.829,1.839-1.094s1.485-0.396,2.324-0.396c0.856,0,1.641,0.132,2.352,0.396s1.326,0.638,1.846,1.121
			c0.429-0.319,0.955-0.604,1.579-0.854s1.237-0.412,1.839-0.485v1.818c-0.429,0-0.877,0.036-1.347,0.109s-0.918,0.2-1.347,0.383
			c0.583,0.793,0.875,1.736,0.875,2.83c0,0.802-0.15,1.526-0.451,2.174s-0.709,1.198-1.224,1.654s-1.126,0.805-1.832,1.046
			s-1.47,0.362-2.29,0.362c-0.866,0-1.659-0.137-2.379-0.41c-0.355,0.146-0.641,0.321-0.854,0.526s-0.321,0.449-0.321,0.731
			c0,0.319,0.152,0.561,0.458,0.725s0.877,0.296,1.716,0.396l3.227,0.246c1.714,0.146,3.01,0.52,3.89,1.121s1.319,1.481,1.319,2.639
			c0,0.665-0.169,1.26-0.506,1.784s-0.805,0.959-1.401,1.306s-1.314,0.613-2.153,0.8S659.286,197.955,658.274,197.955z
			 M658.466,196.437c1.513,0,2.7-0.228,3.562-0.684s1.292-1.058,1.292-1.805c0-0.711-0.308-1.249-0.923-1.613
			s-1.652-0.602-3.11-0.711l-2.939-0.232l-0.766-0.082c-0.839,0.265-1.458,0.638-1.859,1.121s-0.602,1.007-0.602,1.572
			c0,0.784,0.426,1.386,1.278,1.805S656.606,196.437,658.466,196.437z M658.083,186.333c1.212,0,2.172-0.337,2.878-1.012
			s1.06-1.581,1.06-2.721c0-1.176-0.344-2.104-1.032-2.782s-1.666-1.019-2.933-1.019c-1.23,0-2.196,0.344-2.898,1.032
			s-1.053,1.611-1.053,2.769c0,1.14,0.36,2.046,1.08,2.721S656.871,186.333,658.083,186.333z"/>
		<path d="M668.692,171.568h1.928v8.299c0.711-0.711,1.533-1.324,2.468-1.839s1.989-0.772,3.165-0.772
			c1.458,0,2.555,0.383,3.288,1.148s1.101,1.841,1.101,3.227v10.664h-1.928v-10.309c0-1.039-0.237-1.812-0.711-2.317
			s-1.217-0.759-2.229-0.759c-0.948,0-1.834,0.228-2.659,0.684s-1.656,1.085-2.495,1.887v10.814h-1.928V171.568z"/>
		<path d="M689.856,192.486c-1.413,0-2.413-0.285-3.001-0.854s-0.882-1.497-0.882-2.782v-9.652h-2.584v-1.654h2.584v-5.291h1.928
			v5.291h3.828v1.654h-3.828v9.256c0,0.784,0.159,1.383,0.479,1.798s0.935,0.622,1.846,0.622c0.282,0,0.559-0.016,0.827-0.048
			s0.508-0.084,0.718-0.157v1.654c-0.228,0.036-0.52,0.073-0.875,0.109S690.193,192.486,689.856,192.486z"/>
		<path d="M699.7,192.568c-1.321,0-2.477-0.246-3.466-0.738s-1.766-1.121-2.331-1.887l1.23-1.121
			c0.565,0.656,1.215,1.176,1.948,1.559s1.615,0.574,2.646,0.574c1.267,0,2.224-0.221,2.871-0.663s0.971-1.082,0.971-1.921
			c0-0.802-0.319-1.408-0.957-1.818s-1.673-0.784-3.104-1.121c-0.839-0.2-1.581-0.417-2.229-0.649s-1.185-0.513-1.613-0.841
			s-0.75-0.716-0.964-1.162s-0.321-0.998-0.321-1.654c0-0.52,0.111-1.014,0.335-1.483s0.549-0.882,0.978-1.237
			s0.95-0.636,1.565-0.841s1.324-0.308,2.126-0.308c1.276,0,2.343,0.191,3.199,0.574s1.613,0.902,2.27,1.559l-1.094,1.285
			c-0.556-0.556-1.189-0.998-1.9-1.326s-1.513-0.492-2.406-0.492c-0.583,0-1.075,0.062-1.477,0.185s-0.727,0.287-0.978,0.492
			s-0.438,0.438-0.561,0.697s-0.185,0.531-0.185,0.813c0,0.711,0.275,1.251,0.827,1.62s1.47,0.704,2.755,1.005
			c0.921,0.228,1.729,0.463,2.427,0.704s1.285,0.54,1.764,0.896s0.834,0.774,1.066,1.258s0.349,1.089,0.349,1.818
			c0,0.675-0.146,1.273-0.438,1.798s-0.688,0.969-1.189,1.333s-1.103,0.638-1.805,0.82S700.539,192.568,699.7,192.568z"/>
	</g>
	<g>
		<path d="M967.872,171.486h2.16l7.342,20.809h-2.078l-2.215-6.385h-8.395l-2.215,6.385h-1.928L967.872,171.486z M972.466,184.146
			l-3.555-10.309h-0.055l-3.555,10.309H972.466z"/>
		<path d="M985.604,192.609c-0.839,0-1.646-0.169-2.42-0.506s-1.456-0.834-2.044-1.49s-1.055-1.458-1.401-2.406
			s-0.52-2.042-0.52-3.281c0-1.321,0.187-2.463,0.561-3.425s0.868-1.759,1.483-2.393s1.321-1.101,2.119-1.401
			s1.606-0.451,2.427-0.451c0.784,0,1.479,0.107,2.085,0.321s1.133,0.508,1.579,0.882s0.834,0.805,1.162,1.292s0.602,1,0.82,1.538
			l-1.641,0.725c-0.419-1.003-0.941-1.771-1.565-2.304s-1.456-0.8-2.495-0.8c-0.547,0-1.096,0.103-1.647,0.308
			s-1.046,0.547-1.483,1.025s-0.791,1.099-1.06,1.859s-0.403,1.693-0.403,2.796c0,0.976,0.116,1.837,0.349,2.584
			s0.549,1.376,0.95,1.887s0.877,0.902,1.429,1.176s1.15,0.41,1.798,0.41c1.03,0,1.861-0.248,2.495-0.745s1.215-1.297,1.743-2.399
			l1.559,0.67c-0.292,0.62-0.62,1.188-0.984,1.702s-0.786,0.95-1.265,1.306s-1.017,0.631-1.613,0.827
			S986.352,192.609,985.604,192.609z"/>
		<path d="M1000.22,192.609c-0.839,0-1.646-0.169-2.42-0.506s-1.456-0.834-2.044-1.49s-1.055-1.458-1.401-2.406
			s-0.52-2.042-0.52-3.281c0-1.321,0.187-2.463,0.561-3.425s0.868-1.759,1.483-2.393s1.321-1.101,2.119-1.401
			s1.606-0.451,2.427-0.451c0.784,0,1.479,0.107,2.085,0.321s1.133,0.508,1.579,0.882s0.834,0.805,1.162,1.292s0.602,1,0.82,1.538
			l-1.641,0.725c-0.419-1.003-0.941-1.771-1.565-2.304s-1.456-0.8-2.495-0.8c-0.547,0-1.096,0.103-1.647,0.308
			s-1.046,0.547-1.483,1.025s-0.791,1.099-1.06,1.859s-0.403,1.693-0.403,2.796c0,0.976,0.116,1.837,0.349,2.584
			s0.549,1.376,0.95,1.887s0.877,0.902,1.429,1.176s1.15,0.41,1.798,0.41c1.03,0,1.861-0.248,2.495-0.745s1.215-1.297,1.743-2.399
			l1.559,0.67c-0.292,0.62-0.62,1.188-0.984,1.702s-0.786,0.95-1.265,1.306s-1.017,0.631-1.613,0.827
			S1000.967,192.609,1000.22,192.609z"/>
		<path d="M1014.917,192.609c-0.856,0-1.677-0.164-2.461-0.492s-1.47-0.82-2.058-1.477s-1.06-1.458-1.415-2.406
			s-0.533-2.06-0.533-3.336c0-1.304,0.191-2.436,0.574-3.397s0.884-1.755,1.504-2.379s1.311-1.092,2.071-1.401
			s1.533-0.465,2.317-0.465c0.866,0,1.666,0.164,2.399,0.492s1.367,0.813,1.9,1.456s0.955,1.444,1.265,2.406
			s0.465,2.066,0.465,3.315v0.369h-10.555c0,0.911,0.125,1.718,0.376,2.42s0.586,1.294,1.005,1.777s0.909,0.853,1.47,1.107
			s1.16,0.383,1.798,0.383c1.103,0,2.003-0.23,2.7-0.69s1.328-1.128,1.894-2.003l1.203,0.957c-0.656,1.039-1.456,1.859-2.399,2.461
			S1016.32,192.609,1014.917,192.609z M1019.073,183.75c-0.063-0.684-0.189-1.324-0.376-1.921s-0.451-1.116-0.793-1.559
			s-0.766-0.784-1.271-1.025s-1.087-0.362-1.743-0.362c-0.538,0-1.053,0.098-1.545,0.294s-0.941,0.494-1.347,0.896
			s-0.747,0.904-1.025,1.511s-0.463,1.328-0.554,2.167H1019.073z"/>
		<path d="M1024.747,171.568h1.928v20.727h-1.928V171.568z"/>
		<path d="M1036.929,192.609c-0.856,0-1.677-0.164-2.461-0.492s-1.47-0.82-2.058-1.477s-1.06-1.458-1.415-2.406
			s-0.533-2.06-0.533-3.336c0-1.304,0.191-2.436,0.574-3.397s0.884-1.755,1.504-2.379s1.311-1.092,2.071-1.401
			s1.533-0.465,2.317-0.465c0.866,0,1.666,0.164,2.399,0.492s1.367,0.813,1.9,1.456s0.955,1.444,1.265,2.406
			s0.465,2.066,0.465,3.315v0.369h-10.555c0,0.911,0.125,1.718,0.376,2.42s0.586,1.294,1.005,1.777s0.909,0.853,1.47,1.107
			s1.16,0.383,1.798,0.383c1.103,0,2.003-0.23,2.7-0.69s1.328-1.128,1.894-2.003l1.203,0.957c-0.656,1.039-1.456,1.859-2.399,2.461
			S1038.332,192.609,1036.929,192.609z M1041.085,183.75c-0.063-0.684-0.189-1.324-0.376-1.921s-0.451-1.116-0.793-1.559
			s-0.766-0.784-1.271-1.025s-1.087-0.362-1.743-0.362c-0.538,0-1.053,0.098-1.545,0.294s-0.941,0.494-1.347,0.896
			s-0.747,0.904-1.025,1.511s-0.463,1.328-0.554,2.167H1041.085z"/>
		<path d="M1046.595,177.542h1.928v2.912h0.055c0.583-0.921,1.342-1.684,2.276-2.29s2.126-0.909,3.575-0.909h0.342l-0.191,1.791
			h-0.287c-0.073,0-0.137-0.005-0.191-0.014s-0.091-0.014-0.109-0.014c-1.222,0-2.292,0.319-3.213,0.957s-1.673,1.545-2.256,2.721
			v9.598h-1.928V177.542z"/>
		<path d="M1060.403,192.541c-1.321,0-2.347-0.326-3.076-0.978s-1.094-1.557-1.094-2.714c0-0.729,0.169-1.406,0.506-2.03
			s0.897-1.198,1.682-1.723s1.812-0.991,3.083-1.401s2.846-0.757,4.724-1.039v-0.752c0-1.021-0.255-1.779-0.766-2.276
			s-1.253-0.745-2.229-0.745c-1.176,0-2.192,0.219-3.049,0.656s-1.677,0.993-2.461,1.668l-1.039-1.203
			c0.894-0.82,1.873-1.483,2.939-1.989s2.329-0.759,3.787-0.759c1.659,0,2.862,0.415,3.609,1.244s1.121,1.982,1.121,3.459v6.699
			c0,0.894,0.032,1.629,0.096,2.208s0.169,1.055,0.314,1.429h-1.982c-0.091-0.319-0.171-0.641-0.239-0.964s-0.103-0.704-0.103-1.142
			c-0.856,0.784-1.762,1.372-2.714,1.764S1061.524,192.541,1060.403,192.541z M1060.827,190.955c1.048,0,2.019-0.205,2.912-0.615
			s1.723-0.979,2.488-1.709v-4.594c-1.586,0.265-2.896,0.559-3.931,0.882s-1.859,0.677-2.475,1.06s-1.048,0.793-1.299,1.23
			s-0.376,0.902-0.376,1.395c0,0.784,0.237,1.372,0.711,1.764S1059.988,190.955,1060.827,190.955z"/>
		<path d="M1077.343,192.486c-1.413,0-2.413-0.285-3.001-0.854s-0.882-1.497-0.882-2.782v-9.652h-2.584v-1.654h2.584v-5.291h1.928
			v5.291h3.828v1.654h-3.828v9.256c0,0.784,0.159,1.383,0.479,1.798s0.935,0.622,1.846,0.622c0.282,0,0.559-0.016,0.827-0.048
			s0.508-0.084,0.718-0.157v1.654c-0.228,0.036-0.52,0.073-0.875,0.109S1077.68,192.486,1077.343,192.486z"/>
		<path d="M1088.048,192.609c-0.856,0-1.677-0.164-2.461-0.492s-1.47-0.82-2.058-1.477s-1.06-1.458-1.415-2.406
			s-0.533-2.06-0.533-3.336c0-1.304,0.191-2.436,0.574-3.397s0.884-1.755,1.504-2.379s1.311-1.092,2.071-1.401
			s1.533-0.465,2.317-0.465c0.866,0,1.666,0.164,2.399,0.492s1.367,0.813,1.9,1.456s0.955,1.444,1.265,2.406
			s0.465,2.066,0.465,3.315v0.369h-10.555c0,0.911,0.125,1.718,0.376,2.42s0.586,1.294,1.005,1.777s0.909,0.853,1.47,1.107
			s1.16,0.383,1.798,0.383c1.103,0,2.003-0.23,2.7-0.69s1.328-1.128,1.894-2.003l1.203,0.957c-0.656,1.039-1.456,1.859-2.399,2.461
			S1089.451,192.609,1088.048,192.609z M1092.204,183.75c-0.063-0.684-0.189-1.324-0.376-1.921s-0.451-1.116-0.793-1.559
			s-0.766-0.784-1.271-1.025s-1.087-0.362-1.743-0.362c-0.538,0-1.053,0.098-1.545,0.294s-0.941,0.494-1.347,0.896
			s-0.747,0.904-1.025,1.511s-0.463,1.328-0.554,2.167H1092.204z"/>
		<path d="M1102.978,192.541c-0.839,0-1.632-0.152-2.379-0.458s-1.393-0.774-1.935-1.408s-0.973-1.427-1.292-2.379
			s-0.479-2.076-0.479-3.37c0-1.285,0.159-2.408,0.479-3.37s0.759-1.759,1.319-2.393s1.224-1.109,1.989-1.429
			s1.586-0.479,2.461-0.479c0.957,0,1.846,0.219,2.666,0.656s1.518,0.984,2.092,1.641v-7.984h1.941v17.09
			c0,0.894,0.032,1.629,0.096,2.208s0.178,1.055,0.342,1.429h-2.037c-0.091-0.265-0.171-0.593-0.239-0.984s-0.103-0.784-0.103-1.176
			c-0.593,0.656-1.285,1.222-2.078,1.695S1104.08,192.541,1102.978,192.541z M1103.306,190.9c0.921,0,1.738-0.217,2.454-0.649
			s1.429-1.023,2.14-1.771v-7.164c-0.729-0.784-1.461-1.386-2.194-1.805s-1.533-0.629-2.399-0.629c-0.647,0-1.246,0.121-1.798,0.362
			s-1.023,0.61-1.415,1.107s-0.699,1.128-0.923,1.894s-0.335,1.668-0.335,2.707c0,1.012,0.116,1.892,0.349,2.639
			s0.554,1.367,0.964,1.859s0.887,0.856,1.429,1.094S1102.695,190.9,1103.306,190.9z"/>
		<path d="M1120.642,177.542h1.928v2.912h0.055c0.583-0.921,1.342-1.684,2.276-2.29s2.126-0.909,3.575-0.909h0.342l-0.191,1.791
			h-0.287c-0.073,0-0.137-0.005-0.191-0.014s-0.091-0.014-0.109-0.014c-1.222,0-2.292,0.319-3.213,0.957s-1.673,1.545-2.256,2.721
			v9.598h-1.928V177.542z"/>
		<path d="M1136.515,192.609c-0.856,0-1.677-0.164-2.461-0.492s-1.47-0.82-2.058-1.477s-1.06-1.458-1.415-2.406
			s-0.533-2.06-0.533-3.336c0-1.304,0.191-2.436,0.574-3.397s0.884-1.755,1.504-2.379s1.311-1.092,2.071-1.401
			s1.533-0.465,2.317-0.465c0.866,0,1.666,0.164,2.399,0.492s1.367,0.813,1.9,1.456s0.955,1.444,1.265,2.406
			s0.465,2.066,0.465,3.315v0.369h-10.555c0,0.911,0.125,1.718,0.376,2.42s0.586,1.294,1.005,1.777s0.909,0.853,1.47,1.107
			s1.16,0.383,1.798,0.383c1.103,0,2.003-0.23,2.7-0.69s1.328-1.128,1.894-2.003l1.203,0.957c-0.656,1.039-1.456,1.859-2.399,2.461
			S1137.918,192.609,1136.515,192.609z M1140.671,183.75c-0.063-0.684-0.189-1.324-0.376-1.921s-0.451-1.116-0.793-1.559
			s-0.766-0.784-1.271-1.025s-1.087-0.362-1.743-0.362c-0.538,0-1.053,0.098-1.545,0.294s-0.941,0.494-1.347,0.896
			s-0.747,0.904-1.025,1.511s-0.463,1.328-0.554,2.167H1140.671z"/>
		<path d="M1146.181,177.542h1.928v2.092c0.602-0.629,1.294-1.183,2.078-1.661s1.736-0.718,2.857-0.718
			c0.839,0,1.632,0.159,2.379,0.479s1.39,0.791,1.928,1.415s0.966,1.417,1.285,2.379s0.479,2.085,0.479,3.37
			c0,1.294-0.159,2.422-0.479,3.384s-0.757,1.755-1.312,2.379s-1.217,1.094-1.982,1.408s-1.591,0.472-2.475,0.472
			c-0.948,0-1.813-0.21-2.598-0.629s-1.504-0.962-2.16-1.627v7.615h-1.928V177.542z M1152.702,190.927
			c0.656,0,1.26-0.118,1.812-0.355s1.023-0.597,1.415-1.08s0.699-1.103,0.923-1.859s0.335-1.659,0.335-2.707
			c0-1.021-0.116-1.909-0.349-2.666s-0.556-1.383-0.971-1.88s-0.891-0.866-1.429-1.107s-1.116-0.362-1.736-0.362
			c-0.911,0-1.728,0.219-2.447,0.656s-1.436,1.03-2.146,1.777v7.178c0.729,0.784,1.463,1.381,2.201,1.791
			S1151.846,190.927,1152.702,190.927z"/>
		<path d="M1168.63,192.609c-0.894,0-1.748-0.169-2.563-0.506s-1.531-0.834-2.146-1.49s-1.101-1.458-1.456-2.406
			s-0.533-2.042-0.533-3.281c0-1.23,0.178-2.322,0.533-3.274s0.836-1.755,1.442-2.406s1.317-1.146,2.133-1.483
			s1.68-0.506,2.591-0.506c0.894,0,1.745,0.169,2.557,0.506s1.52,0.832,2.126,1.483s1.087,1.454,1.442,2.406
			s0.533,2.044,0.533,3.274c0,1.239-0.178,2.333-0.533,3.281s-0.836,1.75-1.442,2.406s-1.314,1.153-2.126,1.49
			S1169.523,192.609,1168.63,192.609z M1168.63,190.955c0.747,0,1.41-0.15,1.989-0.451s1.073-0.718,1.483-1.251
			s0.723-1.167,0.937-1.9s0.321-1.552,0.321-2.454c0-0.802-0.103-1.565-0.308-2.29s-0.504-1.358-0.896-1.9s-0.882-0.978-1.47-1.306
			s-1.273-0.492-2.058-0.492c-0.747,0-1.415,0.15-2.003,0.451s-1.087,0.716-1.497,1.244s-0.723,1.162-0.937,1.9
			s-0.321,1.536-0.321,2.393c0,0.82,0.098,1.595,0.294,2.324s0.494,1.369,0.896,1.921s0.9,0.991,1.497,1.319
			S1167.846,190.955,1168.63,190.955z"/>
		<path d="M1178.938,177.542h1.928v2.912h0.055c0.583-0.921,1.342-1.684,2.276-2.29s2.126-0.909,3.575-0.909h0.342l-0.191,1.791
			h-0.287c-0.073,0-0.137-0.005-0.191-0.014s-0.091-0.014-0.109-0.014c-1.222,0-2.292,0.319-3.213,0.957s-1.673,1.545-2.256,2.721
			v9.598h-1.928V177.542z"/>
		<path d="M1194.894,192.486c-1.413,0-2.413-0.285-3.001-0.854s-0.882-1.497-0.882-2.782v-9.652h-2.584v-1.654h2.584v-5.291h1.928
			v5.291h3.828v1.654h-3.828v9.256c0,0.784,0.159,1.383,0.479,1.798s0.935,0.622,1.846,0.622c0.282,0,0.559-0.016,0.827-0.048
			s0.508-0.084,0.718-0.157v1.654c-0.228,0.036-0.52,0.073-0.875,0.109S1195.23,192.486,1194.894,192.486z"/>
		<path d="M1200.335,172.046h2.051v2.078h-2.051V172.046z M1200.39,177.542h1.928v14.752h-1.928V177.542z"/>
		<path d="M1206.952,177.542h1.928v2.324c0.711-0.711,1.533-1.324,2.468-1.839s1.989-0.772,3.165-0.772
			c1.458,0,2.555,0.383,3.288,1.148s1.101,1.841,1.101,3.227v10.664h-1.928v-10.309c0-1.039-0.237-1.812-0.711-2.317
			s-1.217-0.759-2.229-0.759c-0.948,0-1.834,0.228-2.659,0.684s-1.656,1.085-2.495,1.887v10.814h-1.928V177.542z"/>
		<path d="M1228.595,197.955c-2.406,0-4.175-0.333-5.305-0.998s-1.695-1.567-1.695-2.707c0-0.766,0.239-1.434,0.718-2.003
			s1.146-1.019,2.003-1.347c-0.884-0.355-1.326-0.984-1.326-1.887c0-0.446,0.164-0.856,0.492-1.23s0.766-0.697,1.312-0.971
			c-0.711-0.456-1.263-1.046-1.654-1.771s-0.588-1.547-0.588-2.468c0-0.784,0.148-1.502,0.444-2.153s0.702-1.21,1.217-1.675
			s1.128-0.829,1.839-1.094s1.485-0.396,2.324-0.396c0.856,0,1.641,0.132,2.352,0.396s1.326,0.638,1.846,1.121
			c0.429-0.319,0.955-0.604,1.579-0.854s1.237-0.412,1.839-0.485v1.818c-0.429,0-0.877,0.036-1.347,0.109s-0.918,0.2-1.347,0.383
			c0.583,0.793,0.875,1.736,0.875,2.83c0,0.802-0.15,1.526-0.451,2.174s-0.709,1.198-1.224,1.654s-1.126,0.805-1.832,1.046
			s-1.47,0.362-2.29,0.362c-0.866,0-1.659-0.137-2.379-0.41c-0.355,0.146-0.641,0.321-0.854,0.526s-0.321,0.449-0.321,0.731
			c0,0.319,0.152,0.561,0.458,0.725s0.877,0.296,1.716,0.396l3.227,0.246c1.714,0.146,3.01,0.52,3.89,1.121s1.319,1.481,1.319,2.639
			c0,0.665-0.169,1.26-0.506,1.784s-0.805,0.959-1.401,1.306s-1.314,0.613-2.153,0.8S1229.606,197.955,1228.595,197.955z
			 M1228.786,196.437c1.513,0,2.7-0.228,3.562-0.684s1.292-1.058,1.292-1.805c0-0.711-0.308-1.249-0.923-1.613
			s-1.652-0.602-3.11-0.711l-2.939-0.232l-0.766-0.082c-0.839,0.265-1.458,0.638-1.859,1.121s-0.602,1.007-0.602,1.572
			c0,0.784,0.426,1.386,1.278,1.805S1226.927,196.437,1228.786,196.437z M1228.403,186.333c1.212,0,2.172-0.337,2.878-1.012
			s1.06-1.581,1.06-2.721c0-1.176-0.344-2.104-1.032-2.782s-1.666-1.019-2.933-1.019c-1.23,0-2.196,0.344-2.898,1.032
			s-1.053,1.611-1.053,2.769c0,1.14,0.36,2.046,1.08,2.721S1227.191,186.333,1228.403,186.333z"/>
	</g>
	<g>
		<path d="M57.34,531.567h1.982v18.908h10.131v1.818H57.34V531.567z"/>
		<path d="M77.588,552.608c-0.894,0-1.748-0.169-2.563-0.506s-1.531-0.834-2.146-1.49s-1.101-1.458-1.456-2.406
			s-0.533-2.042-0.533-3.281c0-1.23,0.178-2.322,0.533-3.274s0.836-1.755,1.442-2.406s1.317-1.146,2.133-1.483
			s1.68-0.506,2.591-0.506c0.894,0,1.745,0.169,2.557,0.506s1.52,0.832,2.126,1.483s1.087,1.454,1.442,2.406
			s0.533,2.044,0.533,3.274c0,1.239-0.178,2.333-0.533,3.281s-0.836,1.75-1.442,2.406s-1.314,1.153-2.126,1.49
			S78.481,552.608,77.588,552.608z M77.588,550.954c0.747,0,1.41-0.15,1.989-0.451s1.073-0.718,1.483-1.251s0.723-1.167,0.937-1.9
			s0.321-1.552,0.321-2.454c0-0.802-0.103-1.565-0.308-2.29s-0.504-1.358-0.896-1.9s-0.882-0.978-1.47-1.306
			s-1.273-0.492-2.058-0.492c-0.747,0-1.415,0.15-2.003,0.451s-1.087,0.716-1.497,1.244s-0.723,1.162-0.937,1.9
			s-0.321,1.536-0.321,2.393c0,0.82,0.098,1.595,0.294,2.324s0.494,1.369,0.896,1.921s0.9,0.991,1.497,1.319
			S76.804,550.954,77.588,550.954z"/>
		<path d="M85.996,537.542h2.023l2.064,7.301c0.137,0.465,0.26,0.897,0.369,1.299s0.221,0.8,0.335,1.196s0.221,0.8,0.321,1.21
			s0.219,0.848,0.355,1.312h0.055c0.128-0.528,0.248-0.998,0.362-1.408s0.217-0.807,0.308-1.189s0.193-0.766,0.308-1.148
			s0.234-0.807,0.362-1.271l2.023-7.301h1.764l2.037,7.438c0.128,0.456,0.244,0.875,0.349,1.258s0.207,0.761,0.308,1.135
			s0.203,0.761,0.308,1.162s0.212,0.843,0.321,1.326h0.055c0.137-0.501,0.26-0.948,0.369-1.34s0.212-0.771,0.308-1.135
			s0.198-0.733,0.308-1.107s0.232-0.784,0.369-1.23l2.146-7.506h1.887l-4.539,14.752H99.08l-3.336-12.127h-0.055l-3.391,12.127
			h-1.764L85.996,537.542z"/>
		<path d="M113.613,552.608c-0.856,0-1.677-0.164-2.461-0.492s-1.47-0.82-2.058-1.477s-1.06-1.458-1.415-2.406
			s-0.533-2.06-0.533-3.336c0-1.304,0.191-2.436,0.574-3.397s0.884-1.755,1.504-2.379s1.311-1.092,2.071-1.401
			s1.533-0.465,2.317-0.465c0.866,0,1.666,0.164,2.399,0.492s1.367,0.813,1.9,1.456s0.955,1.444,1.265,2.406
			s0.465,2.066,0.465,3.315v0.369h-10.555c0,0.911,0.125,1.718,0.376,2.42s0.586,1.294,1.005,1.777s0.909,0.853,1.47,1.107
			s1.16,0.383,1.798,0.383c1.103,0,2.003-0.23,2.7-0.69s1.328-1.128,1.894-2.003l1.203,0.957c-0.656,1.039-1.456,1.859-2.399,2.461
			S115.017,552.608,113.613,552.608z M117.77,543.749c-0.063-0.684-0.189-1.324-0.376-1.921s-0.451-1.116-0.793-1.559
			s-0.766-0.784-1.271-1.025s-1.087-0.362-1.743-0.362c-0.538,0-1.053,0.098-1.545,0.294s-0.941,0.494-1.347,0.896
			s-0.747,0.904-1.025,1.511s-0.463,1.328-0.554,2.167H117.77z"/>
		<path d="M123.279,537.542h1.928v2.912h0.055c0.583-0.921,1.342-1.684,2.276-2.29s2.126-0.909,3.575-0.909h0.342l-0.191,1.791
			h-0.287c-0.073,0-0.137-0.005-0.191-0.014s-0.091-0.014-0.109-0.014c-1.222,0-2.292,0.319-3.213,0.957s-1.673,1.545-2.256,2.721
			v9.598h-1.928V537.542z"/>
		<path d="M140.67,537.542h1.928v2.912h0.055c0.583-0.921,1.342-1.684,2.276-2.29s2.126-0.909,3.575-0.909h0.342l-0.191,1.791
			h-0.287c-0.073,0-0.137-0.005-0.191-0.014s-0.091-0.014-0.109-0.014c-1.222,0-2.292,0.319-3.213,0.957s-1.673,1.545-2.256,2.721
			v9.598h-1.928V537.542z"/>
		<path d="M151.84,532.046h2.051v2.078h-2.051V532.046z M151.895,537.542h1.928v14.752h-1.928V537.542z"/>
		<path d="M163.215,552.567c-1.321,0-2.477-0.246-3.466-0.738s-1.766-1.121-2.331-1.887l1.23-1.121
			c0.565,0.656,1.215,1.176,1.948,1.559s1.615,0.574,2.646,0.574c1.267,0,2.224-0.221,2.871-0.663s0.971-1.082,0.971-1.921
			c0-0.802-0.319-1.408-0.957-1.818s-1.673-0.784-3.104-1.121c-0.839-0.2-1.581-0.417-2.229-0.649s-1.185-0.513-1.613-0.841
			s-0.75-0.716-0.964-1.162s-0.321-0.998-0.321-1.654c0-0.52,0.111-1.014,0.335-1.483s0.549-0.882,0.978-1.237
			s0.95-0.636,1.565-0.841s1.324-0.308,2.126-0.308c1.276,0,2.343,0.191,3.199,0.574s1.613,0.902,2.27,1.559l-1.094,1.285
			c-0.556-0.556-1.189-0.998-1.9-1.326s-1.513-0.492-2.406-0.492c-0.583,0-1.075,0.062-1.477,0.185s-0.727,0.287-0.978,0.492
			s-0.438,0.438-0.561,0.697s-0.185,0.531-0.185,0.813c0,0.711,0.275,1.251,0.827,1.62s1.47,0.704,2.755,1.005
			c0.921,0.228,1.729,0.463,2.427,0.704s1.285,0.54,1.764,0.896s0.834,0.774,1.066,1.258s0.349,1.089,0.349,1.818
			c0,0.675-0.146,1.273-0.438,1.798s-0.688,0.969-1.189,1.333s-1.103,0.638-1.805,0.82S164.054,552.567,163.215,552.567z"/>
		<path d="M172.621,531.567h1.928v13.754l7.027-7.779h2.27l-4.812,5.209l5.4,9.543h-2.105l-4.58-8.066l-3.199,3.418v4.648h-1.928
			V531.567z"/>
	</g>
	<g>
		<path d="M550.964,552.69c-1.96,0-3.598-0.49-4.915-1.47s-2.217-2.322-2.7-4.026l1.764-0.643c0.465,1.458,1.205,2.552,2.222,3.281
			s2.254,1.094,3.712,1.094c1.567,0,2.814-0.333,3.739-0.998s1.388-1.586,1.388-2.762c0-0.538-0.075-1.017-0.226-1.436
			s-0.431-0.807-0.841-1.162s-0.966-0.697-1.668-1.025s-1.604-0.67-2.707-1.025c-1.112-0.355-2.09-0.704-2.933-1.046
			s-1.545-0.743-2.105-1.203s-0.979-0.989-1.258-1.586s-0.417-1.324-0.417-2.181c0-0.747,0.159-1.442,0.479-2.085
			s0.761-1.203,1.326-1.682s1.242-0.856,2.03-1.135s1.656-0.417,2.604-0.417c0.966,0,1.837,0.116,2.611,0.349
			s1.451,0.559,2.03,0.978s1.075,0.923,1.49,1.511s0.74,1.229,0.978,1.921l-1.682,0.779c-0.52-1.34-1.232-2.299-2.14-2.878
			s-2.012-0.868-3.315-0.868c-0.692,0-1.314,0.089-1.866,0.267s-1.019,0.415-1.401,0.711s-0.677,0.654-0.882,1.073
			s-0.308,0.866-0.308,1.34c0,0.574,0.094,1.066,0.28,1.477s0.506,0.784,0.957,1.121s1.039,0.651,1.764,0.943
			s1.639,0.61,2.741,0.957c1.085,0.337,2.028,0.692,2.83,1.066s1.47,0.8,2.003,1.278s0.935,1.025,1.203,1.641
			s0.403,1.342,0.403,2.181c0,0.856-0.183,1.636-0.547,2.338s-0.863,1.294-1.497,1.777s-1.395,0.861-2.283,1.135
			S551.984,552.69,550.964,552.69z"/>
		<path d="M562.243,532.046h2.051v2.078h-2.051V532.046z M562.298,537.542h1.928v14.752h-1.928V537.542z"/>
		<path d="M568.86,537.542h1.928v2.324c0.747-0.729,1.557-1.347,2.427-1.853s1.861-0.759,2.974-0.759
			c1.258,0,2.194,0.248,2.81,0.745s1.032,1.137,1.251,1.921c0.784-0.729,1.634-1.355,2.55-1.88s1.926-0.786,3.028-0.786
			c1.513,0,2.6,0.392,3.261,1.176s0.991,1.851,0.991,3.199v10.664h-1.928v-10.309c0-1.039-0.2-1.812-0.602-2.317
			s-1.126-0.759-2.174-0.759c-0.894,0-1.728,0.228-2.502,0.684s-1.581,1.085-2.42,1.887v10.814h-1.941v-10.309
			c0-1.039-0.2-1.812-0.602-2.317s-1.13-0.759-2.188-0.759c-0.902,0-1.741,0.228-2.516,0.684s-1.581,1.085-2.42,1.887v10.814h-1.928
			V537.542z"/>
		<path d="M594.427,537.542h1.928v2.092c0.602-0.629,1.294-1.183,2.078-1.661s1.736-0.718,2.857-0.718
			c0.839,0,1.632,0.159,2.379,0.479s1.39,0.791,1.928,1.415s0.966,1.417,1.285,2.379s0.479,2.085,0.479,3.37
			c0,1.294-0.159,2.422-0.479,3.384s-0.757,1.755-1.312,2.379s-1.217,1.094-1.982,1.408s-1.591,0.472-2.475,0.472
			c-0.948,0-1.813-0.21-2.598-0.629s-1.504-0.962-2.16-1.627v7.615h-1.928V537.542z M600.948,550.927
			c0.656,0,1.26-0.118,1.812-0.355s1.023-0.597,1.415-1.08s0.699-1.103,0.923-1.859s0.335-1.659,0.335-2.707
			c0-1.021-0.116-1.909-0.349-2.666s-0.556-1.383-0.971-1.88s-0.891-0.866-1.429-1.107s-1.116-0.362-1.736-0.362
			c-0.911,0-1.728,0.219-2.447,0.656s-1.436,1.03-2.146,1.777v7.178c0.729,0.784,1.463,1.381,2.201,1.791
			S600.092,550.927,600.948,550.927z"/>
		<path d="M611.188,531.567h1.928v20.727h-1.928V531.567z"/>
		<path d="M623.37,552.608c-0.856,0-1.677-0.164-2.461-0.492s-1.47-0.82-2.058-1.477s-1.06-1.458-1.415-2.406
			s-0.533-2.06-0.533-3.336c0-1.304,0.191-2.436,0.574-3.397s0.884-1.755,1.504-2.379s1.311-1.092,2.071-1.401
			s1.533-0.465,2.317-0.465c0.866,0,1.666,0.164,2.399,0.492s1.367,0.813,1.9,1.456s0.955,1.444,1.265,2.406
			s0.465,2.066,0.465,3.315v0.369h-10.555c0,0.911,0.125,1.718,0.376,2.42s0.586,1.294,1.005,1.777s0.909,0.853,1.47,1.107
			s1.16,0.383,1.798,0.383c1.103,0,2.003-0.23,2.7-0.69s1.328-1.128,1.894-2.003l1.203,0.957c-0.656,1.039-1.456,1.859-2.399,2.461
			S624.773,552.608,623.37,552.608z M627.526,543.749c-0.063-0.684-0.189-1.324-0.376-1.921s-0.451-1.116-0.793-1.559
			s-0.766-0.784-1.271-1.025s-1.087-0.362-1.743-0.362c-0.538,0-1.053,0.098-1.545,0.294s-0.941,0.494-1.347,0.896
			s-0.747,0.904-1.025,1.511s-0.463,1.328-0.554,2.167H627.526z"/>
		<path d="M633.036,537.542h1.928v2.912h0.055c0.583-0.921,1.342-1.684,2.276-2.29s2.126-0.909,3.575-0.909h0.342l-0.191,1.791
			h-0.287c-0.073,0-0.137-0.005-0.191-0.014s-0.091-0.014-0.109-0.014c-1.222,0-2.292,0.319-3.213,0.957s-1.673,1.545-2.256,2.721
			v9.598h-1.928V537.542z"/>
		<path d="M651.124,531.567h1.982v20.727h-1.982V531.567z"/>
		<path d="M663.688,533.427h-6.686v-1.859h15.367v1.859h-6.686v18.867h-1.996V533.427z"/>
	</g>
	<g>
		<path d="M999.399,531.567h1.982v20.727h-1.982V531.567z"/>
		<path d="M1006.563,537.542h1.928v2.324c0.747-0.729,1.557-1.347,2.427-1.853s1.861-0.759,2.974-0.759
			c1.258,0,2.194,0.248,2.81,0.745s1.032,1.137,1.251,1.921c0.784-0.729,1.634-1.355,2.55-1.88s1.926-0.786,3.028-0.786
			c1.513,0,2.6,0.392,3.261,1.176s0.991,1.851,0.991,3.199v10.664h-1.928v-10.309c0-1.039-0.2-1.812-0.602-2.317
			s-1.126-0.759-2.174-0.759c-0.894,0-1.728,0.228-2.502,0.684s-1.581,1.085-2.42,1.887v10.814h-1.941v-10.309
			c0-1.039-0.2-1.812-0.602-2.317s-1.13-0.759-2.188-0.759c-0.902,0-1.741,0.228-2.516,0.684s-1.581,1.085-2.42,1.887v10.814h-1.928
			V537.542z"/>
		<path d="M1032.13,537.542h1.928v2.092c0.602-0.629,1.294-1.183,2.078-1.661s1.736-0.718,2.857-0.718
			c0.839,0,1.632,0.159,2.379,0.479s1.39,0.791,1.928,1.415s0.966,1.417,1.285,2.379s0.479,2.085,0.479,3.37
			c0,1.294-0.159,2.422-0.479,3.384s-0.757,1.755-1.312,2.379s-1.217,1.094-1.982,1.408s-1.591,0.472-2.475,0.472
			c-0.948,0-1.813-0.21-2.598-0.629s-1.504-0.962-2.16-1.627v7.615h-1.928V537.542z M1038.651,550.927
			c0.656,0,1.26-0.118,1.812-0.355s1.023-0.597,1.415-1.08s0.699-1.103,0.923-1.859s0.335-1.659,0.335-2.707
			c0-1.021-0.116-1.909-0.349-2.666s-0.556-1.383-0.971-1.88s-0.891-0.866-1.429-1.107s-1.116-0.362-1.736-0.362
			c-0.911,0-1.728,0.219-2.447,0.656s-1.436,1.03-2.146,1.777v7.178c0.729,0.784,1.463,1.381,2.201,1.791
			S1037.795,550.927,1038.651,550.927z"/>
		<path d="M1048.728,537.542h1.928v2.912h0.055c0.583-0.921,1.342-1.684,2.276-2.29s2.126-0.909,3.575-0.909h0.342l-0.191,1.791
			h-0.287c-0.073,0-0.137-0.005-0.191-0.014s-0.091-0.014-0.109-0.014c-1.222,0-2.292,0.319-3.213,0.957s-1.673,1.545-2.256,2.721
			v9.598h-1.928V537.542z"/>
		<path d="M1064.888,552.608c-0.894,0-1.748-0.169-2.563-0.506s-1.531-0.834-2.146-1.49s-1.101-1.458-1.456-2.406
			s-0.533-2.042-0.533-3.281c0-1.23,0.178-2.322,0.533-3.274s0.836-1.755,1.442-2.406s1.317-1.146,2.133-1.483
			s1.68-0.506,2.591-0.506c0.894,0,1.745,0.169,2.557,0.506s1.52,0.832,2.126,1.483s1.087,1.454,1.442,2.406
			s0.533,2.044,0.533,3.274c0,1.239-0.178,2.333-0.533,3.281s-0.836,1.75-1.442,2.406s-1.314,1.153-2.126,1.49
			S1065.781,552.608,1064.888,552.608z M1064.888,550.954c0.747,0,1.41-0.15,1.989-0.451s1.073-0.718,1.483-1.251
			s0.723-1.167,0.937-1.9s0.321-1.552,0.321-2.454c0-0.802-0.103-1.565-0.308-2.29s-0.504-1.358-0.896-1.9s-0.882-0.978-1.47-1.306
			s-1.273-0.492-2.058-0.492c-0.747,0-1.415,0.15-2.003,0.451s-1.087,0.716-1.497,1.244s-0.723,1.162-0.937,1.9
			s-0.321,1.536-0.321,2.393c0,0.82,0.098,1.595,0.294,2.324s0.494,1.369,0.896,1.921s0.9,0.991,1.497,1.319
			S1064.104,550.954,1064.888,550.954z"/>
		<path d="M1072.981,537.542h2.078l4.361,12.455h0.055l4.348-12.455h1.955l-5.428,14.807h-1.928L1072.981,537.542z"/>
		<path d="M1093.667,552.608c-0.856,0-1.677-0.164-2.461-0.492s-1.47-0.82-2.058-1.477s-1.06-1.458-1.415-2.406
			s-0.533-2.06-0.533-3.336c0-1.304,0.191-2.436,0.574-3.397s0.884-1.755,1.504-2.379s1.311-1.092,2.071-1.401
			s1.533-0.465,2.317-0.465c0.866,0,1.666,0.164,2.399,0.492s1.367,0.813,1.9,1.456s0.955,1.444,1.265,2.406
			s0.465,2.066,0.465,3.315v0.369h-10.555c0,0.911,0.125,1.718,0.376,2.42s0.586,1.294,1.005,1.777s0.909,0.853,1.47,1.107
			s1.16,0.383,1.798,0.383c1.103,0,2.003-0.23,2.7-0.69s1.328-1.128,1.894-2.003l1.203,0.957c-0.656,1.039-1.456,1.859-2.399,2.461
			S1095.07,552.608,1093.667,552.608z M1097.823,543.749c-0.063-0.684-0.189-1.324-0.376-1.921s-0.451-1.116-0.793-1.559
			s-0.766-0.784-1.271-1.025s-1.087-0.362-1.743-0.362c-0.538,0-1.053,0.098-1.545,0.294s-0.941,0.494-1.347,0.896
			s-0.747,0.904-1.025,1.511s-0.463,1.328-0.554,2.167H1097.823z"/>
		<path d="M1108.597,552.54c-0.839,0-1.632-0.152-2.379-0.458s-1.393-0.774-1.935-1.408s-0.973-1.427-1.292-2.379
			s-0.479-2.076-0.479-3.37c0-1.285,0.159-2.408,0.479-3.37s0.759-1.759,1.319-2.393s1.224-1.109,1.989-1.429
			s1.586-0.479,2.461-0.479c0.957,0,1.846,0.219,2.666,0.656s1.518,0.984,2.092,1.641v-7.984h1.941v17.09
			c0,0.894,0.032,1.629,0.096,2.208s0.178,1.055,0.342,1.429h-2.037c-0.091-0.265-0.171-0.593-0.239-0.984s-0.103-0.784-0.103-1.176
			c-0.593,0.656-1.285,1.222-2.078,1.695S1109.699,552.54,1108.597,552.54z M1108.925,550.899c0.921,0,1.738-0.217,2.454-0.649
			s1.429-1.023,2.14-1.771v-7.164c-0.729-0.784-1.461-1.386-2.194-1.805s-1.533-0.629-2.399-0.629c-0.647,0-1.246,0.121-1.798,0.362
			s-1.023,0.61-1.415,1.107s-0.699,1.128-0.923,1.894s-0.335,1.668-0.335,2.707c0,1.012,0.116,1.892,0.349,2.639
			s0.554,1.367,0.964,1.859s0.887,0.856,1.429,1.094S1108.314,550.899,1108.925,550.899z"/>
		<path d="M1129.528,552.54c-1.321,0-2.347-0.326-3.076-0.978s-1.094-1.557-1.094-2.714c0-0.729,0.169-1.406,0.506-2.03
			s0.897-1.198,1.682-1.723s1.812-0.991,3.083-1.401s2.846-0.757,4.724-1.039v-0.752c0-1.021-0.255-1.779-0.766-2.276
			s-1.253-0.745-2.229-0.745c-1.176,0-2.192,0.219-3.049,0.656s-1.677,0.993-2.461,1.668l-1.039-1.203
			c0.894-0.82,1.873-1.483,2.939-1.989s2.329-0.759,3.787-0.759c1.659,0,2.862,0.415,3.609,1.244s1.121,1.982,1.121,3.459v6.699
			c0,0.894,0.032,1.629,0.096,2.208s0.169,1.055,0.314,1.429h-1.982c-0.091-0.319-0.171-0.641-0.239-0.964s-0.103-0.704-0.103-1.142
			c-0.856,0.784-1.762,1.372-2.714,1.764S1130.649,552.54,1129.528,552.54z M1129.952,550.954c1.048,0,2.019-0.205,2.912-0.615
			s1.723-0.979,2.488-1.709v-4.594c-1.586,0.265-2.896,0.559-3.931,0.882s-1.859,0.677-2.475,1.06s-1.048,0.793-1.299,1.23
			s-0.376,0.902-0.376,1.395c0,0.784,0.237,1.372,0.711,1.764S1129.113,550.954,1129.952,550.954z"/>
		<path d="M1146.946,557.954c-2.406,0-4.175-0.333-5.305-0.998s-1.695-1.567-1.695-2.707c0-0.766,0.239-1.434,0.718-2.003
			s1.146-1.019,2.003-1.347c-0.884-0.355-1.326-0.984-1.326-1.887c0-0.446,0.164-0.856,0.492-1.23s0.766-0.697,1.312-0.971
			c-0.711-0.456-1.263-1.046-1.654-1.771s-0.588-1.547-0.588-2.468c0-0.784,0.148-1.502,0.444-2.153s0.702-1.21,1.217-1.675
			s1.128-0.829,1.839-1.094s1.485-0.396,2.324-0.396c0.856,0,1.641,0.132,2.352,0.396s1.326,0.638,1.846,1.121
			c0.429-0.319,0.955-0.604,1.579-0.854s1.237-0.412,1.839-0.485v1.818c-0.429,0-0.877,0.036-1.347,0.109s-0.918,0.2-1.347,0.383
			c0.583,0.793,0.875,1.736,0.875,2.83c0,0.802-0.15,1.526-0.451,2.174s-0.709,1.198-1.224,1.654s-1.126,0.805-1.832,1.046
			s-1.47,0.362-2.29,0.362c-0.866,0-1.659-0.137-2.379-0.41c-0.355,0.146-0.641,0.321-0.854,0.526s-0.321,0.449-0.321,0.731
			c0,0.319,0.152,0.561,0.458,0.725s0.877,0.296,1.716,0.396l3.227,0.246c1.714,0.146,3.01,0.52,3.89,1.121s1.319,1.481,1.319,2.639
			c0,0.665-0.169,1.26-0.506,1.784s-0.805,0.959-1.401,1.306s-1.314,0.613-2.153,0.8S1147.958,557.954,1146.946,557.954z
			 M1147.138,556.437c1.513,0,2.7-0.228,3.562-0.684s1.292-1.058,1.292-1.805c0-0.711-0.308-1.249-0.923-1.613
			s-1.652-0.602-3.11-0.711l-2.939-0.232l-0.766-0.082c-0.839,0.265-1.458,0.638-1.859,1.121s-0.602,1.007-0.602,1.572
			c0,0.784,0.426,1.386,1.278,1.805S1145.278,556.437,1147.138,556.437z M1146.755,546.333c1.212,0,2.172-0.337,2.878-1.012
			s1.06-1.581,1.06-2.721c0-1.176-0.344-2.104-1.032-2.782s-1.666-1.019-2.933-1.019c-1.23,0-2.196,0.344-2.898,1.032
			s-1.053,1.611-1.053,2.769c0,1.14,0.36,2.046,1.08,2.721S1145.543,546.333,1146.755,546.333z"/>
		<path d="M1157.474,532.046h2.051v2.078h-2.051V532.046z M1157.528,537.542h1.928v14.752h-1.928V537.542z"/>
		<path d="M1164.255,531.567h1.928v20.727h-1.928V531.567z"/>
		<path d="M1170.927,532.046h2.051v2.078h-2.051V532.046z M1170.981,537.542h1.928v14.752h-1.928V537.542z"/>
		<path d="M1182.438,552.485c-1.413,0-2.413-0.285-3.001-0.854s-0.882-1.497-0.882-2.782v-9.652h-2.584v-1.654h2.584v-5.291h1.928
			v5.291h3.828v1.654h-3.828v9.256c0,0.784,0.159,1.383,0.479,1.798s0.935,0.622,1.846,0.622c0.282,0,0.559-0.016,0.827-0.048
			s0.508-0.084,0.718-0.157v1.654c-0.228,0.036-0.52,0.073-0.875,0.109S1182.775,552.485,1182.438,552.485z"/>
		<path d="M1187.839,557.954c-0.565,0-1.039-0.029-1.422-0.089s-0.72-0.135-1.012-0.226l0.438-1.6
			c0.21,0.063,0.483,0.118,0.82,0.164s0.747,0.068,1.23,0.068c0.802,0,1.427-0.183,1.873-0.547s0.829-0.938,1.148-1.723l0.615-1.627
			l-5.715-14.834h2.078l4.594,12.455h0.055l4.566-12.455h2.01l-6.357,16.461c-0.237,0.656-0.497,1.23-0.779,1.723
			s-0.615,0.902-0.998,1.23s-0.825,0.576-1.326,0.745S1188.55,557.954,1187.839,557.954z"/>
	</g>
	
		<line fill="none" stroke="#231F20" stroke-width="2" stroke-miterlimit="10" x1="785.907" y1="365.477" x2="1098.151" y2="365.477"/>
	
		<line fill="none" stroke="#231F20" stroke-width="2" stroke-miterlimit="10" x1="1098.151" y1="503.184" x2="1098.151" y2="227.771"/>
	
		<line fill="none" stroke="#231F20" stroke-width="2" stroke-miterlimit="10" x1="119.943" y1="503.184" x2="119.943" y2="227.771"/>
	
		<line fill="none" stroke="#231F20" stroke-width="2" stroke-miterlimit="10" x1="607.107" y1="503.184" x2="607.107" y2="403.107"/>
	<g>
		<path fill="#148FCF" d="M652.434,65.326h8.953c-0.765,23.878-16.939,43.853-38.908,50.326v-3.034
			c0-8.811,3.487-17.071,9.817-23.254l0.529-0.543V88.81c6.662-6.785,10.322-15.712,10.322-25.223
			c0-19.874-16.167-36.043-36.039-36.043c-19.873,0-36.041,16.169-36.041,36.043c0,9.504,3.659,18.429,10.318,25.214l0.529,0.562
			c6.329,6.185,9.815,14.443,9.815,23.254v3.034c-21.967-6.473-38.139-26.449-38.904-50.326h8.956c0.97,0,1.756-0.786,1.756-1.756
			c0-0.97-0.786-1.756-1.756-1.756h-8.949c0.432-13.675,5.913-26.069,14.648-35.387l6.333,6.334
			c0.343,0.343,0.792,0.514,1.241,0.514s0.898-0.171,1.241-0.514c0.686-0.686,0.686-1.797,0-2.483l-6.334-6.335
			c9.316-8.738,21.71-14.221,35.386-14.657v8.955c0,0.97,0.786,1.756,1.756,1.756s1.756-0.786,1.756-1.756V9.288
			c13.677,0.435,26.072,5.92,35.389,14.659l-6.334,6.334c-0.686,0.685-0.686,1.797,0,2.483c0.343,0.343,0.792,0.514,1.241,0.514
			c0.449,0,0.898-0.171,1.241-0.514l6.333-6.333c8.735,9.318,14.215,21.711,14.647,35.385h-8.945c-0.97,0-1.756,0.786-1.756,1.756
			C650.679,64.54,651.465,65.326,652.434,65.326z M618.939,63.556c0-6.521-5.308-11.826-11.832-11.826
			c-6.526,0-11.834,5.305-11.834,11.826c0,6.528,5.308,11.838,11.834,11.838C613.631,75.394,618.939,70.084,618.939,63.556z"/>
		<path fill="#EFAB1F" d="M646.735,26.429l-0.002,0.002l-6.333,6.333c-0.343,0.343-0.792,0.514-1.241,0.514
			c-0.449,0-0.899-0.171-1.241-0.514c-0.686-0.685-0.686-1.797,0-2.483l6.334-6.334l0.003-0.003
			c-9.316-8.746-21.712-14.244-35.392-14.677v0.021v8.955c0,0.97-0.786,1.756-1.756,1.756s-1.756-0.786-1.756-1.756V9.288v-0.02
			c-13.674,0.437-26.072,5.934-35.386,14.676l0.001,0.001l6.334,6.335c0.686,0.686,0.686,1.797,0,2.483
			c-0.343,0.343-0.792,0.514-1.241,0.514s-0.898-0.171-1.241-0.514l-6.333-6.334c-2.83,3.021-5.321,6.363-7.407,9.969h23.415
			c6.331-5.507,14.589-8.853,23.618-8.853c9.029,0,17.287,3.346,23.617,8.853h23.417C652.055,32.791,649.564,29.449,646.735,26.429z
			"/>
		<path opacity="0.7" fill="#EFAB1F" d="M618.939,63.56h-23.666c0-0.001,0-0.003,0-0.004c0-6.521,5.308-11.826,11.834-11.826
			c6.524,0,11.832,5.305,11.832,11.826C618.939,63.558,618.939,63.559,618.939,63.56z M552.817,61.815h0.017h8.949
			c0.966,0,1.749,0.781,1.755,1.745h7.531c0.008-10.833,4.826-20.556,12.422-27.163h-23.415
			C555.723,43.917,553.11,52.571,552.817,61.815z M652.434,61.815h8.945h0.018c-0.293-9.244-2.906-17.898-7.256-25.418h-23.417
			c7.595,6.608,12.413,16.33,12.421,27.163h7.533C650.685,62.595,651.468,61.815,652.434,61.815z"/>
		<path opacity="0.4" fill="#EFAB1F" d="M595.273,63.56h23.666c-0.002,6.526-5.309,11.834-11.832,11.834
			C600.582,75.394,595.275,70.086,595.273,63.56z M563.538,63.571c0,0.97-0.786,1.756-1.756,1.756h-8.956h-0.009
			c0.297,9.235,2.909,17.875,7.257,25.394h23.146c-0.422-0.461-0.855-0.915-1.306-1.356l-0.529-0.562
			c-6.66-6.785-10.318-15.71-10.318-25.214c0-0.009,0.001-0.018,0.001-0.027h-7.531C563.537,63.564,563.538,63.567,563.538,63.571z
			 M652.434,65.326c-0.97,0-1.756-0.786-1.756-1.756c0-0.004,0.001-0.007,0.001-0.01h-7.533c0,0.009,0.001,0.018,0.001,0.027
			c0,9.511-3.66,18.438-10.322,25.223v0.011l-0.529,0.543c-0.451,0.441-0.884,0.895-1.306,1.356h23.152
			c4.346-7.519,6.959-16.158,7.256-25.394h-0.011H652.434z"/>
		<path d="M605.35,9.288v-0.02V1.756c0-0.97,0.786-1.756,1.756-1.756s1.756,0.786,1.756,1.756v7.512v0.021v8.955
			c0,0.97-0.786,1.756-1.756,1.756s-1.756-0.786-1.756-1.756V9.288z M637.917,30.281c-0.686,0.685-0.686,1.797,0,2.483
			c0.343,0.343,0.792,0.514,1.241,0.514c0.449,0,0.898-0.171,1.241-0.514l6.333-6.333l0.002-0.002l5.323-5.323
			c0.686-0.685,0.686-1.797,0-2.483c-0.686-0.686-1.797-0.686-2.483,0l-5.321,5.321l-0.003,0.003L637.917,30.281z M561.782,65.326
			c0.97,0,1.756-0.786,1.756-1.756c0-0.004-0.001-0.007-0.001-0.01c-0.006-0.965-0.789-1.745-1.755-1.745h-8.949h-0.017h-7.524
			c-0.97,0-1.756,0.786-1.756,1.756c0,0.97,0.786,1.756,1.756,1.756h7.524h0.009H561.782z M668.922,61.815h-7.524h-0.018h-8.945
			c-0.966,0-1.749,0.781-1.755,1.745c0,0.004-0.001,0.007-0.001,0.01c0,0.97,0.786,1.756,1.756,1.756h8.953h0.011h7.524
			c0.97,0,1.756-0.786,1.756-1.756C670.678,62.601,669.891,61.815,668.922,61.815z M575.057,33.276c0.449,0,0.898-0.171,1.241-0.514
			c0.686-0.686,0.686-1.797,0-2.483l-6.334-6.335l-0.001-0.001l-5.323-5.324c-0.686-0.686-1.797-0.685-2.483,0
			c-0.686,0.686-0.686,1.797,0,2.483l5.324,5.325l0,0l6.333,6.334C574.158,33.105,574.607,33.276,575.057,33.276z M632.296,89.364
			c-0.451,0.441-0.884,0.895-1.306,1.356c-5.499,6.01-8.511,13.715-8.511,21.898v3.034v2.226H591.73v-2.226v-3.034
			c0-8.183-3.011-15.887-8.51-21.898c-0.422-0.461-0.855-0.915-1.306-1.356l-0.529-0.562c-6.66-6.785-10.318-15.71-10.318-25.214
			c0-0.009,0.001-0.018,0.001-0.027c0.008-10.833,4.826-20.556,12.422-27.163c6.331-5.507,14.589-8.853,23.618-8.853
			c9.029,0,17.287,3.346,23.617,8.853c7.595,6.608,12.413,16.33,12.421,27.163c0,0.009,0.001,0.018,0.001,0.027
			c0,9.511-3.66,18.438-10.322,25.223v0.011L632.296,89.364z M626.414,90.72c0.894-1.16,1.856-2.279,2.899-3.341V87.37l0.528-0.543
			c6.316-6.179,9.794-14.433,9.794-23.24c0-0.009-0.001-0.018-0.001-0.027c-0.009-11.347-5.861-21.347-14.699-27.163
			c-5.124-3.372-11.249-5.341-17.828-5.341c-6.579,0-12.704,1.97-17.829,5.341c-8.839,5.816-14.691,15.816-14.7,27.163
			c0,0.009-0.001,0.018-0.001,0.027c0,8.801,3.477,17.051,9.791,23.232l0.527,0.56c1.044,1.061,2.005,2.181,2.899,3.341
			c4.826,6.262,7.445,13.869,7.445,21.898v1.749h10.11V90.72V78.798c-7.636-0.874-13.589-7.37-13.591-15.238
			c0-0.001,0-0.003,0-0.004c0-8.457,6.884-15.338,15.346-15.338c8.461,0,15.344,6.881,15.344,15.338c0,0.001,0,0.003,0,0.004
			c-0.002,7.867-5.953,14.362-13.587,15.238V90.72v23.647h10.105v-1.749C618.968,104.589,621.588,96.981,626.414,90.72z
			 M595.273,63.56c0.002,6.526,5.309,11.834,11.834,11.834c6.523,0,11.83-5.308,11.832-11.834c0-0.001,0-0.003,0-0.004
			c0-6.521-5.308-11.826-11.832-11.826c-6.526,0-11.834,5.305-11.834,11.826C595.272,63.558,595.273,63.559,595.273,63.56z
			 M591.731,126.654h30.753v-3.511h-30.753V126.654z M591.731,132.086h30.753v3.511h-6.855v12.654h-17.045v-12.654h-6.853V132.086z
			 M602.096,144.739h10.022v-9.142h-10.022V144.739z"/>
	</g>
	<g>
		<g>
			<path fill="#148FCF" d="M174.387,85.877c-14.03-13.779-33.261-22.289-54.444-22.289c-21.174,0-40.396,8.509-54.435,22.289
				c-14.375,14.108-23.317,33.762-23.317,55.454h-0.216v0.009h9.952v-0.009c0-18.98,7.818-36.163,20.406-48.5
				c12.276-12.06,29.096-19.498,47.61-19.498c18.522,0,35.343,7.438,47.619,19.498c0.397,0.389,0.786,0.778,1.166,1.175
				c1.011,1.037,1.987,2.108,2.92,3.205c0.397,0.458,0.786,0.924,1.158,1.391c0.752,0.933,1.486,1.883,2.203,2.86
				c0.354,0.484,0.708,0.985,1.045,1.477c2.099,3.067,3.957,6.307,5.538,9.702l8.941-3.888
				C186.551,100.175,181.056,92.434,174.387,85.877z"/>
			<path fill="#148FCF" d="M197.695,141.331c0-10.401-2.056-20.328-5.78-29.407l-8.933,3.888c3.205,7.879,4.976,16.501,4.976,25.52
				v0.009h9.952v-0.009H197.695z"/>
		</g>
		<g>
			<path fill="#EFAB1F" d="M174.387,85.877l-6.825,6.946v0.009c0.397,0.389,0.786,0.778,1.166,1.175
				c1.011,1.037,1.987,2.108,2.92,3.205c0.397,0.458,0.786,0.924,1.158,1.391c0.752,0.933,1.486,1.883,2.203,2.86
				c0.354,0.484,0.708,0.985,1.045,1.477c2.099,3.067,3.957,6.307,5.538,9.702l8.941-3.888
				C186.551,100.175,181.056,92.434,174.387,85.877z"/>
			<path fill="#EFAB1F" d="M197.695,141.331c0-10.401-2.056-20.328-5.78-29.407l-8.933,3.888c3.205,7.879,4.976,16.501,4.976,25.52
				v0.009h9.952v-0.009H197.695z"/>
		</g>
		<path opacity="0.7" fill="#EFAB1F" d="M174.387,85.877l-6.825,6.946v0.009c-12.276-12.06-29.096-19.498-47.619-19.498v-9.745
			C141.126,63.588,160.357,72.098,174.387,85.877z"/>
		<path opacity="0.4" fill="#EFAB1F" d="M119.943,63.588v9.745c-18.514,0-35.334,7.438-47.61,19.498v-0.009l-6.825-6.946
			C79.547,72.098,98.769,63.588,119.943,63.588z"/>
		<path d="M197.911,141.34v-0.009h-0.216c0-10.401-2.056-20.328-5.78-29.407l-8.933,3.888l-56.215,24.44
			c0.484,3.006-1.071,6.065-3.965,7.378c-3.482,1.581-7.576,0.043-9.149-3.438c-1.581-3.473-0.043-7.568,3.438-9.149
			c2.963-1.339,6.376-0.415,8.302,2.039l56.197-24.44l8.941-3.888c-3.983-8.579-9.477-16.319-16.146-22.876
			c-14.03-13.779-33.261-22.289-54.444-22.289c-21.174,0-40.396,8.509-54.435,22.289c-14.375,14.108-23.317,33.762-23.317,55.454
			h-0.216v0.009h-3.24c0-44.776,36.431-81.208,81.208-81.208s81.208,36.431,81.208,81.208H197.911z"/>
	</g>
	<g>
		<polygon points="1163.937,35.153 1156.09,41.11 1134.128,57.788 1128.337,62.182 1118.043,70 1108.647,57.622 1102.277,62.457 
			1096.486,66.859 1073.981,83.942 1070.427,79.259 1064.636,71.629 1064.585,71.564 1038.576,91.311 1033.509,95.158 
			1033.509,15.058 1030.613,15.058 1030.613,148.251 1033.509,148.251 1033.509,98.796 1038.576,94.945 1064.028,75.617 
			1064.636,76.421 1070.427,84.043 1073.431,88.003 1096.486,70.492 1102.277,66.091 1108.09,61.676 1117.493,74.054 
			1128.337,65.823 1134.128,61.422 1160.187,41.639 1165.689,37.462 		"/>
		<g>
			<polygon fill="#148FCF" points="1069.702,92.737 1069.702,148.251 1095.762,148.251 1095.762,79.186 1072.706,96.696 			"/>
			<polygon fill="#148FCF" points="1107.366,70.369 1101.553,74.785 1101.553,148.251 1127.612,148.251 1127.612,74.517 
				1116.769,82.747 			"/>
			<polygon fill="#148FCF" points="1037.852,103.638 1037.852,148.251 1063.911,148.251 1063.911,85.114 1063.303,84.311 			"/>
			<polygon fill="#148FCF" points="1133.403,70.116 1133.403,148.251 1159.463,148.251 1159.463,50.332 			"/>
		</g>
		<polygon fill="#EFAB1F" points="1159.463,50.332 1159.463,148.251 1133.403,148.251 1133.403,70.116 		"/>
		<polygon opacity="0.7" fill="#EFAB1F" points="1127.612,74.517 1127.612,148.251 1101.553,148.251 1101.553,74.785 
			1107.366,70.369 1116.769,82.747 		"/>
		<polygon opacity="0.4" fill="#EFAB1F" points="1095.762,79.186 1095.762,148.251 1069.702,148.251 1069.702,92.737 
			1072.706,96.696 		"/>
	</g>
	<g>
		<path d="M152.301,687.956h-19.319v-2.806h19.319V687.956z M152.301,659.897h-19.319v2.806h19.319V659.897z M152.301,634.644
			h-19.319v2.806h19.319V634.644z M152.301,609.391h-19.319v2.806h19.319V609.391z M152.301,584.138h-19.319v2.806h19.319V584.138z
			 M143.855,714.041c0-10.414-5.891-20.102-15.083-24.928V587.879c0-6.591-5.362-11.953-11.953-11.953h-2.198
			c-6.591,0-11.953,5.362-11.953,11.953v101.233c-9.192,4.827-15.083,14.514-15.083,24.928c0,15.514,12.621,28.135,28.135,28.135
			S143.855,729.555,143.855,714.041z M116.819,578.732c5.044,0,9.147,4.103,9.147,9.147v102.975l0.791,0.384
			c8.816,4.275,14.293,13.013,14.293,22.803c0,13.966-11.363,25.329-25.329,25.329c-13.966,0-25.329-11.363-25.329-25.329
			c0-9.79,5.476-18.527,14.292-22.803l0.791-0.384V587.879c0-5.044,4.103-9.147,9.147-9.147H116.819z"/>
		<path fill="#148FCF" d="M137.554,712.714c-0.303-5.116-2.355-9.757-5.582-13.328c-2.667-2.951-6.125-5.174-10.043-6.327v-7.001
			h-12.35v7.001c-3.918,1.152-7.376,3.376-10.043,6.327c-3.227,3.571-5.279,8.212-5.582,13.328
			c-0.026,0.434-0.054,0.868-0.054,1.309c0,4.441,1.328,8.57,3.604,12.019c3.909,5.924,10.621,9.835,18.25,9.835
			s14.341-3.911,18.25-9.835c2.276-3.449,3.604-7.578,3.604-12.019C137.608,713.582,137.579,713.148,137.554,712.714z"/>
		<path fill="#EFAB1F" d="M115.754,735.877c7.629,0,14.341-3.911,18.25-9.835h-36.5
			C101.413,731.965,108.125,735.877,115.754,735.877z"/>
		<path opacity="0.7" fill="#EFAB1F" d="M93.9,714.022c0,4.441,1.328,8.57,3.604,12.019h36.5c2.276-3.449,3.604-7.578,3.604-12.019
			c0-0.441-0.029-0.874-0.054-1.309h-43.6C93.928,713.148,93.9,713.582,93.9,714.022z"/>
		<path opacity="0.4" fill="#EFAB1F" d="M93.954,712.714h43.6c-0.303-5.116-2.355-9.757-5.582-13.328H99.536
			C96.309,702.956,94.257,707.598,93.954,712.714z"/>
	</g>
	<g>
		<path d="M638.408,724.124h-23.712v-13.583c-6.214-1.85-11.93-5.152-16.654-9.618l-11.765,6.793l-11.856-20.535l11.764-6.792
			c-0.749-3.15-1.128-6.379-1.128-9.616c0-3.238,0.379-6.468,1.128-9.616l-11.764-6.792l11.856-20.535l11.765,6.793
			c4.724-4.467,10.44-7.768,16.654-9.618v-13.583h11.856v2.964h-8.892v12.877l-1.099,0.294c-6.503,1.741-12.465,5.185-17.242,9.958
			l-0.804,0.803l-11.154-6.44l-8.892,15.402l11.15,6.438l-0.293,1.097c-0.867,3.247-1.306,6.598-1.306,9.958
			c0,3.359,0.44,6.709,1.307,9.958l0.293,1.097l-11.15,6.438l8.892,15.402l11.154-6.44l0.804,0.803
			c4.778,4.773,10.74,8.217,17.242,9.958l1.099,0.294v12.877h17.784v-12.877l1.099-0.294c6.503-1.741,12.465-5.185,17.242-9.958
			l0.804-0.803l11.154,6.44l4.446-7.701l2.567,1.482l-5.928,10.267l-11.765-6.793c-4.724,4.467-10.44,7.768-16.654,9.618V724.124z
			 M653.228,670.773c0-14.709-11.967-26.676-26.676-26.676s-26.676,11.967-26.676,26.676s11.967,26.676,26.676,26.676
			S653.228,685.482,653.228,670.773z M650.264,670.773c0,13.075-10.637,23.712-23.712,23.712s-23.712-10.637-23.712-23.712
			s10.637-23.712,23.712-23.712S650.264,657.698,650.264,670.773z M576.165,634.098c3.617-1.112,6.946-3.038,9.735-5.631
			l8.669,5.005l7.41-12.834l-8.667-5.004c0.423-1.847,0.637-3.733,0.637-5.622c0-1.889-0.214-3.775-0.636-5.622l8.667-5.004
			l-7.41-12.834l-8.669,5.005c-2.789-2.594-6.118-4.519-9.735-5.631v-10h-14.82v10c-3.617,1.112-6.946,3.038-9.735,5.631
			l-8.669-5.005l-7.41,12.834l8.666,5.004c-0.423,1.847-0.636,3.734-0.636,5.622c0,1.888,0.214,3.774,0.636,5.622l-8.666,5.004
			l7.41,12.834l8.669-5.005c2.789,2.593,6.118,4.519,9.735,5.631v10h14.82V634.098z M564.309,631.828l-1.113-0.287
			c-3.895-1.002-7.457-3.062-10.299-5.957l-0.804-0.819l-8.067,4.658l-4.446-7.701l8.063-4.655l-0.306-1.106
			c-0.538-1.944-0.812-3.946-0.812-5.949c0-2.004,0.273-4.006,0.812-5.949l0.306-1.106l-8.063-4.655l4.446-7.701l8.067,4.658
			l0.804-0.819c2.842-2.895,6.404-4.955,10.299-5.957l1.113-0.287v-9.306h8.892v9.306l1.113,0.287
			c3.895,1.002,7.457,3.062,10.299,5.957l0.804,0.819l8.067-4.658l4.446,7.701l-8.064,4.655l0.306,1.106
			c0.539,1.943,0.812,3.945,0.812,5.949c0,2.004-0.273,4.006-0.812,5.949l-0.306,1.106l8.064,4.655l-4.446,7.701l-8.067-4.658
			l-0.804,0.819c-2.842,2.895-6.404,4.955-10.299,5.957l-1.113,0.287v9.306h-8.892V631.828z M574.091,622.232L574.091,622.232
			c0.889-0.389,1.754-0.891,2.571-1.495c2.988-2.206,4.935-5.573,5.343-9.238c0.059-0.53,0.087-1.017,0.087-1.487
			c0-0.47-0.029-0.956-0.087-1.488c-0.408-3.664-2.355-7.031-5.343-9.237c-0.818-0.604-1.683-1.107-2.572-1.495
			c-3.391-1.483-7.281-1.483-10.672,0c-0.889,0.388-1.754,0.892-2.572,1.495c-2.988,2.206-4.935,5.573-5.343,9.237
			c-0.059,0.527-0.087,1.014-0.087,1.488c0,0.474,0.029,0.961,0.087,1.488c0.408,3.664,2.355,7.031,5.343,9.237
			c0.818,0.604,1.683,1.107,2.572,1.495c1.695,0.741,3.491,1.117,5.336,1.117C570.6,623.35,572.396,622.974,574.091,622.232z
			 M572.904,600.507c0.686,0.3,1.358,0.691,1.998,1.164c2.326,1.718,3.841,4.335,4.158,7.18c0.046,0.421,0.069,0.801,0.069,1.161
			c0,0.36-0.023,0.74-0.069,1.16c-0.317,2.846-1.832,5.463-4.158,7.181c-0.639,0.473-1.312,0.864-1.998,1.164h0
			c-2.638,1.154-5.659,1.154-8.297,0c-0.686-0.3-1.358-0.691-1.998-1.164c-2.326-1.717-3.841-4.334-4.158-7.181
			c-0.047-0.417-0.069-0.797-0.069-1.16c0-0.363,0.022-0.743,0.069-1.16c0.317-2.846,1.832-5.464,4.158-7.181
			c0.639-0.472,1.312-0.864,1.998-1.164c1.319-0.577,2.715-0.869,4.149-0.869C570.189,599.638,571.585,599.93,572.904,600.507z"/>
		<g>
			<path fill="#148FCF" d="M668.048,670.773c0-3.237-0.379-6.466-1.128-9.616l11.764-6.792l-5.928-10.268l-5.928-10.267
				l-11.765,6.793c-2.36-2.232-4.968-4.172-7.762-5.786c-2.798-1.617-5.783-2.906-8.892-3.832v-13.583h-11.856v2.964v23.712
				c4.854,0,9.406,1.31,13.331,3.585c4.043,2.344,7.416,5.716,9.759,9.759c2.275,3.925,3.585,8.477,3.585,13.331
				s-1.31,9.406-3.585,13.331l20.546,11.862l2.567,1.482l5.928-10.267l-11.764-6.792
				C667.668,677.239,668.048,674.01,668.048,670.773z"/>
			<path opacity="0.4" fill="#EFAB1F" d="M666.828,633.83l-11.765,6.793c-2.36-2.232-4.968-4.172-7.762-5.786l-1.482,2.567
				l-5.935,10.279c4.043,2.344,7.416,5.716,9.759,9.759l20.546-11.862l2.567-1.482L666.828,633.83z"/>
			<path fill="#EFAB1F" d="M666.92,680.389c0.749-3.15,1.128-6.38,1.128-9.617h-2.964h-11.856c0,4.854-1.31,9.406-3.585,13.331
				l20.546,11.862l2.567,1.482l5.928-10.267L666.92,680.389z"/>
			<path opacity="0.7" fill="#EFAB1F" d="M678.683,654.365l-5.928-10.267l-2.567,1.482l-20.546,11.862
				c2.275,3.925,3.585,8.477,3.585,13.331h11.856h2.964c0-3.237-0.379-6.466-1.128-9.616L678.683,654.365z"/>
		</g>
	</g>
	<g>
		<path fill="#148FCF" d="M1143.242,644.654c-0.002-0.04-0.004-0.08-0.006-0.12c-0.473-9.805-3.464-19.228-8.65-27.46
			c-1.916-3.042-4.131-5.922-6.63-8.597c-4.825-5.164-10.486-9.33-16.687-12.373c-0.366-0.176-0.733-0.35-1.102-0.52
			c-0.252-0.117-0.506-0.232-0.76-0.345c-0.473-0.211-0.948-0.417-1.424-0.617c-0.103-0.043-0.207-0.082-0.31-0.124
			c-5.41-2.206-11.164-3.597-17.099-4.065h-0.054c-0.062-0.005-0.19-0.014-0.358-0.026c-0.402-0.028-1.045-0.07-1.631-0.107
			c-0.013-0.001-0.026-0.002-0.04-0.002c-0.28-0.017-0.544-0.033-0.762-0.045c-0.01-0.001-0.021-0.001-0.03-0.002
			c-0.102-0.006-0.192-0.01-0.268-0.014c-0.011-0.001-0.02-0.001-0.03-0.001c-0.072-0.003-0.132-0.006-0.169-0.006
			c-0.001,0-0.003,0-0.004,0l-0.169-2.711h0l-0.046-0.721l-0.259-4.083l-4.226,4.392l-11.993,12.464l12.353,9.948l5.866,4.724
			l-0.286-4.503l-0.026-0.002l-0.193-3.107c0.513,0.06,1.164,0.145,1.73,0.221c0.065,0.009,0.123,0.017,0.185,0.025
			c0.27,0.036,0.508,0.069,0.696,0.095c0.145,0.02,0.267,0.037,0.333,0.046c0.009,0.001,0.015,0.002,0.023,0.003l0,0.001
			l0.628,0.089c3.434,0.493,6.767,1.429,9.929,2.753c5.681,2.38,10.805,6.03,14.936,10.732c1.502,1.71,2.841,3.536,4.023,5.447
			c3.931,6.356,6.054,13.7,6.054,21.247c0,0.737-0.024,1.471-0.064,2.202c-0.447,8.317-3.423,16.19-8.549,22.723l13.015,10.087
			c7.236-9.245,11.455-20.551,12.038-32.216c0.047-0.93,0.077-1.862,0.077-2.796C1143.304,646.41,1143.282,645.531,1143.242,644.654
			z"/>
		<path fill="#EFAB1F" d="M1090.574,590.433h-0.054c-0.062-0.005-0.19-0.014-0.358-0.026c-0.402-0.028-1.045-0.07-1.631-0.107
			c-0.013-0.001-0.026-0.002-0.04-0.002c-0.28-0.017-0.544-0.033-0.762-0.045c-0.01-0.001-0.021-0.001-0.03-0.002
			c-0.102-0.006-0.192-0.01-0.268-0.014c-0.011-0.001-0.02-0.001-0.03-0.001c-0.072-0.003-0.132-0.006-0.169-0.006
			c-0.001,0-0.003,0-0.004,0l-0.169-2.711h0l-0.046-0.721l-0.259-4.083l-4.226,4.392l-11.993,12.464l12.353,9.948l5.866,4.724
			l-0.286-4.503l-0.026-0.002l-0.193-3.107c0.513,0.06,1.164,0.145,1.73,0.221c0.065,0.009,0.123,0.017,0.185,0.025
			c0.27,0.036,0.508,0.069,0.696,0.095c0.145,0.02,0.267,0.037,0.333,0.046c0.009,0.001,0.015,0.002,0.023,0.003l0,0.001
			l0.628,0.089c3.434,0.493,6.767,1.429,9.929,2.753l5.9-15.368C1102.263,592.292,1096.508,590.901,1090.574,590.433z"/>
		<path opacity="0.7" fill="#EFAB1F" d="M1127.956,608.477c-4.825-5.164-10.486-9.33-16.687-12.373
			c-0.366-0.176-0.733-0.35-1.102-0.52c-0.252-0.117-0.506-0.232-0.76-0.345c-0.473-0.211-0.948-0.417-1.424-0.617
			c-0.103-0.043-0.207-0.082-0.31-0.124l-5.9,15.368c5.681,2.38,10.805,6.03,14.936,10.732c1.502,1.71,2.841,3.536,4.023,5.447
			l13.854-8.971C1132.67,614.032,1130.455,611.152,1127.956,608.477z"/>
		<path opacity="0.4" fill="#EFAB1F" d="M1143.304,647.292c0-0.882-0.022-1.761-0.062-2.638c-0.002-0.04-0.004-0.08-0.006-0.12
			c-0.473-9.805-3.464-19.228-8.65-27.46l-13.854,8.971c3.931,6.356,6.054,13.7,6.054,21.247c0,0.737-0.024,1.471-0.064,2.202
			l16.505,0.594C1143.274,649.157,1143.304,648.226,1143.304,647.292z"/>
		<path d="M1069.758,681.313h-5.953c-2.487-1.618-4.824-3.502-6.947-5.667c-7.488-7.635-11.612-17.705-11.612-28.354
			c0-16.908,10.599-31.876,26.004-37.856l2.593,2.158c-14.92,5.059-25.683,19.149-25.683,35.697
			C1048.16,662.285,1057,675.246,1069.758,681.313z M1028.728,647.292c0-24.189,15.311-45.266,37.233-53.431l4.448-4.476
			c-25.652,6.864-44.595,30.216-44.595,57.907c0,12.628,3.951,24.348,10.67,34.021h3.599
			C1032.751,671.508,1028.728,659.52,1028.728,647.292z M1181.092,695.512l-24.482-22.415v11.871h-18.098l-0.497,0.608
			c-0.644,0.788-1.3,1.553-1.962,2.306h20.558v0.002h2.914v-2.916v-5.252l17.253,15.796l-17.253,15.795v-4.167v-2.931h-2.914v0.017
			h-41.044c-2.074,1.086-4.202,2.057-6.382,2.914h47.427v10.786L1181.092,695.512z M1146.218,647.292
			c0,14.263-5.032,27.371-13.41,37.676c-10.325,12.7-25.74,21.126-43.126,22.172h-7.331h-67.14v-22.172h24.014h45.806
			c0.329,0.008,0.655,0.025,0.986,0.025c0.331,0,0.657-0.016,0.986-0.025c20.419-0.524,36.87-17.217,36.87-37.676
			c0-18.956-14.126-34.668-32.442-37.295l0,0.005l-0.026-0.002l0.677,10.664l-12.857-10.354l-12.995-10.465l11.568-12.023
			l11.446-11.896l0.688,10.841l0.048,0.752h0.708C1121.706,589.904,1146.218,615.791,1146.218,647.292z M1130.547,683.13
			c0.22-0.271,0.427-0.551,0.642-0.826c7.236-9.245,11.455-20.551,12.038-32.216c0.047-0.93,0.077-1.862,0.077-2.796
			c0-0.882-0.022-1.761-0.062-2.638c-0.002-0.04-0.004-0.08-0.006-0.12c-0.473-9.805-3.464-19.228-8.65-27.46
			c-1.916-3.042-4.131-5.922-6.63-8.597c-4.825-5.164-10.486-9.33-16.687-12.373c-0.365-0.179-0.734-0.349-1.102-0.52
			c-0.252-0.117-0.506-0.232-0.76-0.345c-0.472-0.211-0.946-0.419-1.424-0.617c-0.103-0.043-0.207-0.082-0.31-0.124
			c-5.41-2.206-11.164-3.597-17.099-4.065h-0.054c-0.062-0.005-0.19-0.014-0.358-0.026c-0.402-0.028-1.045-0.07-1.631-0.107
			c-0.013-0.001-0.026-0.002-0.04-0.002c-0.28-0.017-0.544-0.033-0.762-0.045c-0.01-0.001-0.021-0.001-0.03-0.002
			c-0.102-0.006-0.192-0.01-0.268-0.014c-0.011-0.001-0.02-0.001-0.03-0.001c-0.072-0.003-0.132-0.006-0.169-0.006
			c-0.001,0-0.003,0-0.004,0l-0.169-2.711h0l-0.046-0.721l-0.259-4.083l-4.226,4.392l-11.993,12.464l12.353,9.948l5.866,4.724
			l-0.286-4.503l-0.026-0.002l-0.193-3.107c0.513,0.06,1.164,0.145,1.73,0.221c0.065,0.009,0.123,0.017,0.185,0.025
			c0.27,0.036,0.508,0.069,0.696,0.095c0.145,0.02,0.267,0.037,0.333,0.046c0.009,0.001,0.015,0.002,0.023,0.003l0,0.001
			l0.628,0.089c3.434,0.493,6.767,1.429,9.929,2.753c5.681,2.38,10.805,6.03,14.936,10.732c1.502,1.71,2.841,3.536,4.023,5.447
			c3.931,6.356,6.054,13.7,6.054,21.247c0,0.737-0.024,1.471-0.064,2.202c-0.447,8.317-3.423,16.19-8.549,22.723
			c-0.932,1.188-1.927,2.336-2.999,3.43c-7.47,7.617-17.448,11.962-28.098,12.235l-0.299,0.009
			c-0.253,0.009-0.506,0.017-0.762,0.017c-0.255,0-0.509-0.008-0.762-0.017l-0.268-0.008h-45.762h-21.1v16.345h64.226h7.243
			C1105.52,703.243,1120.443,695.557,1130.547,683.13z"/>
	</g>
	<g>
	</g>
	<g>
	</g>
	<g>
	</g>
	<g>
	</g>
	<g>
	</g>
	<g>
	</g>
</g>
</svg>
